G04 MADE WITH FRITZING*
G04 WWW.FRITZING.ORG*
G04 DOUBLE SIDED*
G04 HOLES PLATED*
G04 CONTOUR ON CENTER OF CONTOUR VECTOR*
%ASAXBY*%
%FSLAX23Y23*%
%MOIN*%
%OFA0B0*%
%SFA1.0B1.0*%
%ADD10C,0.082000*%
%ADD11C,0.078000*%
%ADD12C,0.062992*%
%ADD13C,0.074000*%
%ADD14C,0.075000*%
%ADD15R,0.082000X0.082000*%
%ADD16R,0.078000X0.078000*%
%ADD17R,0.062992X0.062992*%
%ADD18C,0.024000*%
%LNCOPPER1*%
G90*
G70*
G54D10*
X1297Y1415D03*
X1397Y1415D03*
X1497Y1415D03*
G54D11*
X197Y1515D03*
X197Y1415D03*
G54D12*
X2497Y216D03*
X2497Y315D03*
G54D13*
X1197Y515D03*
X1197Y415D03*
X1197Y315D03*
X1197Y215D03*
X1197Y615D03*
G54D14*
X2197Y1015D03*
X2597Y1015D03*
G54D12*
X197Y1016D03*
X197Y1115D03*
G54D15*
X1297Y1415D03*
G54D16*
X197Y1515D03*
G54D17*
X2497Y216D03*
X197Y1016D03*
G54D18*
X2597Y314D02*
X2516Y235D01*
D02*
X2597Y986D02*
X2597Y314D01*
D02*
X1598Y514D02*
X1396Y514D01*
D02*
X1896Y514D02*
X1598Y514D01*
D02*
X2484Y339D02*
X2395Y514D01*
D02*
X2395Y514D02*
X1896Y514D01*
D02*
X1095Y1415D02*
X227Y1415D01*
D02*
X1396Y1214D02*
X1095Y1415D01*
D02*
X1396Y514D02*
X1396Y1214D01*
D02*
X1297Y1614D02*
X1496Y1515D01*
D02*
X96Y1214D02*
X96Y1614D01*
D02*
X1496Y1515D02*
X1496Y1447D01*
D02*
X96Y1614D02*
X1297Y1614D01*
D02*
X177Y1134D02*
X96Y1214D01*
D02*
X2298Y1113D02*
X2217Y1035D01*
D02*
X398Y115D02*
X2697Y115D01*
D02*
X2697Y115D02*
X2697Y1113D01*
D02*
X197Y215D02*
X398Y115D01*
D02*
X197Y989D02*
X197Y215D01*
D02*
X2697Y1113D02*
X2298Y1113D01*
G04 End of Copper1*
M02*