G04 MADE WITH FRITZING*
G04 WWW.FRITZING.ORG*
G04 DOUBLE SIDED*
G04 HOLES PLATED*
G04 CONTOUR ON CENTER OF CONTOUR VECTOR*
%ASAXBY*%
%FSLAX23Y23*%
%MOIN*%
%OFA0B0*%
%SFA1.0B1.0*%
%ADD10C,0.082000*%
%ADD11C,0.078000*%
%ADD12C,0.062992*%
%ADD13C,0.074000*%
%ADD14C,0.075000*%
%ADD15R,0.082000X0.082000*%
%ADD16R,0.078000X0.078000*%
%ADD17R,0.062992X0.062992*%
%ADD18C,0.024000*%
%LNCOPPER0*%
G90*
G70*
G54D10*
X1297Y1415D03*
X1397Y1415D03*
X1497Y1415D03*
G54D11*
X197Y1515D03*
X197Y1415D03*
G54D12*
X2497Y216D03*
X2497Y315D03*
G54D13*
X1197Y515D03*
X1197Y415D03*
X1197Y315D03*
X1197Y215D03*
X1197Y615D03*
G54D14*
X2197Y1015D03*
X2597Y1015D03*
G54D12*
X197Y1016D03*
X197Y1115D03*
G54D15*
X1297Y1415D03*
G54D16*
X197Y1515D03*
G54D17*
X2497Y216D03*
X197Y1016D03*
G54D18*
X221Y1028D02*
X396Y1115D01*
D02*
X396Y1516D02*
X227Y1515D01*
D02*
X396Y1115D02*
X396Y1516D01*
D02*
X1396Y714D02*
X1397Y1383D01*
D02*
X1224Y629D02*
X1396Y714D01*
D02*
X1096Y515D02*
X1096Y1314D01*
D02*
X1096Y1314D02*
X1268Y1400D01*
D02*
X1174Y437D02*
X1096Y515D01*
G04 End of Copper0*
M02*