G04 MADE WITH FRITZING*
G04 WWW.FRITZING.ORG*
G04 DOUBLE SIDED*
G04 HOLES PLATED*
G04 CONTOUR ON CENTER OF CONTOUR VECTOR*
%ASAXBY*%
%FSLAX23Y23*%
%MOIN*%
%OFA0B0*%
%SFA1.0B1.0*%
%ADD10C,0.008*%
%LNCONTOUR*%
G90*
G70*
G54D10*
X373Y1900D02*
X374Y1900D01*
X375Y1900D01*
X376Y1900D01*
X377Y1900D01*
X378Y1900D01*
X379Y1900D01*
X380Y1900D01*
X381Y1900D01*
X382Y1900D01*
X383Y1900D01*
X384Y1900D01*
X385Y1900D01*
X386Y1900D01*
X387Y1900D01*
X388Y1900D01*
X389Y1900D01*
X390Y1900D01*
X391Y1900D01*
X392Y1900D01*
X393Y1900D01*
X394Y1900D01*
X395Y1900D01*
X396Y1900D01*
X397Y1900D01*
X398Y1900D01*
X399Y1900D01*
X400Y1900D01*
X401Y1900D01*
X402Y1900D01*
X403Y1900D01*
X404Y1900D01*
X405Y1900D01*
X406Y1900D01*
X407Y1900D01*
X408Y1900D01*
X409Y1900D01*
X410Y1900D01*
X411Y1900D01*
X412Y1900D01*
X413Y1900D01*
X414Y1900D01*
X415Y1900D01*
X416Y1900D01*
X417Y1900D01*
X418Y1900D01*
X419Y1900D01*
X420Y1900D01*
X421Y1900D01*
X422Y1900D01*
X423Y1900D01*
X424Y1900D01*
X425Y1900D01*
X426Y1900D01*
X427Y1900D01*
X428Y1900D01*
X429Y1900D01*
X430Y1900D01*
X431Y1900D01*
X432Y1900D01*
X433Y1900D01*
X434Y1900D01*
X435Y1900D01*
X436Y1900D01*
X437Y1900D01*
X438Y1900D01*
X439Y1900D01*
X440Y1900D01*
X441Y1900D01*
X442Y1900D01*
X443Y1900D01*
X444Y1900D01*
X445Y1900D01*
X446Y1900D01*
X447Y1900D01*
X448Y1900D01*
X449Y1900D01*
X450Y1900D01*
X451Y1900D01*
X452Y1900D01*
X453Y1900D01*
X454Y1900D01*
X455Y1900D01*
X456Y1900D01*
X457Y1900D01*
X458Y1900D01*
X459Y1900D01*
X460Y1900D01*
X461Y1900D01*
X462Y1900D01*
X463Y1900D01*
X464Y1900D01*
X465Y1900D01*
X466Y1900D01*
X467Y1900D01*
X468Y1900D01*
X469Y1900D01*
X470Y1900D01*
X471Y1900D01*
X472Y1900D01*
X473Y1900D01*
X474Y1900D01*
X475Y1900D01*
X476Y1900D01*
X477Y1900D01*
X478Y1900D01*
X479Y1900D01*
X480Y1900D01*
X481Y1900D01*
X482Y1900D01*
X483Y1900D01*
X484Y1900D01*
X485Y1900D01*
X486Y1900D01*
X487Y1900D01*
X488Y1900D01*
X489Y1900D01*
X490Y1900D01*
X491Y1900D01*
X492Y1900D01*
X493Y1900D01*
X494Y1900D01*
X495Y1900D01*
X496Y1900D01*
X497Y1900D01*
X498Y1900D01*
X499Y1900D01*
X500Y1900D01*
X501Y1900D01*
X502Y1900D01*
X503Y1900D01*
X504Y1900D01*
X505Y1900D01*
X506Y1900D01*
X507Y1900D01*
X508Y1900D01*
X509Y1900D01*
X510Y1900D01*
X511Y1900D01*
X512Y1900D01*
X513Y1900D01*
X514Y1900D01*
X515Y1900D01*
X516Y1900D01*
X517Y1900D01*
X518Y1900D01*
X519Y1900D01*
X520Y1900D01*
X521Y1900D01*
X522Y1900D01*
X523Y1900D01*
X524Y1900D01*
X525Y1900D01*
X526Y1900D01*
X527Y1900D01*
X528Y1900D01*
X529Y1900D01*
X530Y1900D01*
X531Y1900D01*
X532Y1900D01*
X533Y1900D01*
X534Y1900D01*
X535Y1900D01*
X536Y1900D01*
X537Y1900D01*
X538Y1900D01*
X539Y1900D01*
X540Y1900D01*
X541Y1900D01*
X542Y1900D01*
X543Y1900D01*
X544Y1900D01*
X545Y1900D01*
X546Y1900D01*
X547Y1900D01*
X548Y1900D01*
X549Y1900D01*
X550Y1900D01*
X551Y1900D01*
X552Y1900D01*
X553Y1900D01*
X554Y1900D01*
X555Y1900D01*
X556Y1900D01*
X557Y1900D01*
X558Y1900D01*
X559Y1900D01*
X560Y1900D01*
X561Y1900D01*
X562Y1900D01*
X563Y1900D01*
X564Y1900D01*
X565Y1900D01*
X566Y1900D01*
X567Y1900D01*
X568Y1900D01*
X569Y1900D01*
X570Y1900D01*
X571Y1900D01*
X572Y1900D01*
X573Y1900D01*
X574Y1900D01*
X575Y1900D01*
X576Y1900D01*
X577Y1900D01*
X578Y1900D01*
X579Y1900D01*
X580Y1900D01*
X581Y1900D01*
X582Y1900D01*
X583Y1900D01*
X584Y1900D01*
X585Y1900D01*
X586Y1900D01*
X587Y1900D01*
X588Y1900D01*
X589Y1900D01*
X590Y1900D01*
X591Y1900D01*
X592Y1900D01*
X593Y1900D01*
X594Y1900D01*
X595Y1900D01*
X596Y1900D01*
X597Y1900D01*
X598Y1900D01*
X599Y1900D01*
X600Y1900D01*
X601Y1900D01*
X602Y1900D01*
X603Y1900D01*
X604Y1900D01*
X605Y1900D01*
X606Y1900D01*
X607Y1900D01*
X608Y1900D01*
X609Y1900D01*
X610Y1900D01*
X611Y1900D01*
X612Y1900D01*
X613Y1900D01*
X614Y1900D01*
X615Y1900D01*
X616Y1900D01*
X617Y1900D01*
X618Y1900D01*
X619Y1900D01*
X620Y1900D01*
X621Y1900D01*
X622Y1900D01*
X623Y1900D01*
X624Y1900D01*
X625Y1900D01*
X626Y1900D01*
X627Y1900D01*
X628Y1900D01*
X629Y1900D01*
X630Y1900D01*
X631Y1900D01*
X632Y1900D01*
X633Y1900D01*
X634Y1900D01*
X635Y1900D01*
X636Y1900D01*
X637Y1900D01*
X638Y1900D01*
X639Y1900D01*
X640Y1900D01*
X641Y1900D01*
X642Y1900D01*
X643Y1900D01*
X644Y1900D01*
X645Y1900D01*
X646Y1900D01*
X647Y1900D01*
X648Y1900D01*
X649Y1900D01*
X650Y1900D01*
X651Y1900D01*
X652Y1900D01*
X653Y1900D01*
X654Y1900D01*
X655Y1900D01*
X656Y1900D01*
X657Y1900D01*
X658Y1900D01*
X659Y1900D01*
X660Y1900D01*
X661Y1900D01*
X662Y1900D01*
X663Y1900D01*
X664Y1900D01*
X665Y1900D01*
X666Y1900D01*
X667Y1900D01*
X668Y1900D01*
X669Y1900D01*
X670Y1900D01*
X671Y1900D01*
X672Y1900D01*
X673Y1900D01*
X674Y1900D01*
X675Y1900D01*
X676Y1900D01*
X677Y1900D01*
X678Y1900D01*
X679Y1900D01*
X680Y1900D01*
X681Y1900D01*
X682Y1900D01*
X683Y1900D01*
X684Y1900D01*
X685Y1900D01*
X686Y1900D01*
X687Y1900D01*
X688Y1900D01*
X689Y1900D01*
X690Y1900D01*
X691Y1900D01*
X692Y1900D01*
X693Y1900D01*
X694Y1900D01*
X695Y1900D01*
X696Y1900D01*
X697Y1900D01*
X698Y1900D01*
X699Y1900D01*
X700Y1900D01*
X701Y1900D01*
X702Y1900D01*
X703Y1900D01*
X704Y1900D01*
X705Y1900D01*
X706Y1900D01*
X707Y1900D01*
X708Y1900D01*
X709Y1900D01*
X710Y1900D01*
X711Y1900D01*
X712Y1900D01*
X713Y1900D01*
X714Y1900D01*
X715Y1900D01*
X716Y1900D01*
X717Y1900D01*
X718Y1900D01*
X719Y1900D01*
X720Y1900D01*
X721Y1900D01*
X722Y1900D01*
X723Y1900D01*
X724Y1900D01*
X725Y1900D01*
X726Y1900D01*
X727Y1900D01*
X728Y1900D01*
X729Y1900D01*
X730Y1900D01*
X731Y1900D01*
X732Y1900D01*
X733Y1900D01*
X734Y1900D01*
X735Y1900D01*
X736Y1900D01*
X737Y1900D01*
X738Y1900D01*
X739Y1900D01*
X740Y1900D01*
X741Y1900D01*
X742Y1900D01*
X743Y1900D01*
X744Y1900D01*
X745Y1900D01*
X746Y1900D01*
X747Y1900D01*
X748Y1900D01*
X749Y1900D01*
X750Y1900D01*
X751Y1900D01*
X752Y1900D01*
X753Y1900D01*
X754Y1900D01*
X755Y1900D01*
X756Y1900D01*
X757Y1900D01*
X758Y1900D01*
X759Y1900D01*
X760Y1900D01*
X761Y1900D01*
X762Y1900D01*
X763Y1900D01*
X764Y1900D01*
X765Y1900D01*
X766Y1900D01*
X767Y1900D01*
X768Y1900D01*
X769Y1900D01*
X770Y1900D01*
X771Y1900D01*
X772Y1900D01*
X773Y1900D01*
X774Y1900D01*
X775Y1900D01*
X776Y1900D01*
X777Y1900D01*
X778Y1900D01*
X779Y1900D01*
X780Y1900D01*
X781Y1900D01*
X782Y1900D01*
X783Y1900D01*
X784Y1900D01*
X785Y1900D01*
X786Y1900D01*
X787Y1900D01*
X788Y1900D01*
X789Y1900D01*
X790Y1900D01*
X791Y1900D01*
X792Y1900D01*
X793Y1900D01*
X794Y1900D01*
X795Y1900D01*
X796Y1900D01*
X797Y1900D01*
X798Y1900D01*
X799Y1900D01*
X800Y1900D01*
X801Y1900D01*
X802Y1900D01*
X803Y1900D01*
X804Y1900D01*
X805Y1900D01*
X806Y1900D01*
X807Y1900D01*
X808Y1900D01*
X809Y1900D01*
X810Y1900D01*
X811Y1900D01*
X812Y1900D01*
X813Y1900D01*
X814Y1900D01*
X815Y1900D01*
X816Y1900D01*
X817Y1900D01*
X818Y1900D01*
X819Y1900D01*
X820Y1900D01*
X821Y1900D01*
X822Y1900D01*
X823Y1900D01*
X824Y1900D01*
X825Y1900D01*
X826Y1900D01*
X827Y1900D01*
X828Y1900D01*
X829Y1900D01*
X830Y1900D01*
X831Y1900D01*
X832Y1900D01*
X833Y1900D01*
X834Y1900D01*
X835Y1900D01*
X836Y1900D01*
X837Y1900D01*
X838Y1900D01*
X839Y1900D01*
X840Y1900D01*
X841Y1900D01*
X842Y1900D01*
X843Y1900D01*
X844Y1900D01*
X845Y1900D01*
X846Y1900D01*
X847Y1900D01*
X848Y1900D01*
X849Y1900D01*
X850Y1900D01*
X851Y1900D01*
X852Y1900D01*
X853Y1900D01*
X854Y1900D01*
X855Y1900D01*
X856Y1900D01*
X857Y1900D01*
X858Y1900D01*
X859Y1900D01*
X860Y1900D01*
X861Y1900D01*
X862Y1900D01*
X863Y1900D01*
X864Y1900D01*
X865Y1900D01*
X866Y1900D01*
X867Y1900D01*
X868Y1900D01*
X869Y1900D01*
X870Y1900D01*
X871Y1900D01*
X872Y1900D01*
X873Y1900D01*
X874Y1900D01*
X875Y1900D01*
X876Y1900D01*
X877Y1900D01*
X878Y1900D01*
X879Y1900D01*
X880Y1900D01*
X881Y1900D01*
X882Y1900D01*
X883Y1900D01*
X884Y1900D01*
X885Y1900D01*
X886Y1900D01*
X887Y1900D01*
X888Y1900D01*
X889Y1900D01*
X890Y1900D01*
X891Y1900D01*
X892Y1900D01*
X893Y1900D01*
X894Y1900D01*
X895Y1900D01*
X896Y1900D01*
X897Y1900D01*
X898Y1900D01*
X899Y1900D01*
X900Y1900D01*
X901Y1900D01*
X902Y1900D01*
X903Y1900D01*
X904Y1900D01*
X905Y1900D01*
X906Y1900D01*
X907Y1900D01*
X908Y1900D01*
X909Y1900D01*
X910Y1900D01*
X911Y1900D01*
X912Y1900D01*
X913Y1900D01*
X914Y1900D01*
X915Y1900D01*
X916Y1900D01*
X917Y1900D01*
X918Y1900D01*
X919Y1900D01*
X920Y1900D01*
X921Y1900D01*
X922Y1900D01*
X923Y1900D01*
X924Y1900D01*
X925Y1900D01*
X926Y1900D01*
X927Y1900D01*
X928Y1900D01*
X929Y1900D01*
X930Y1900D01*
X931Y1900D01*
X932Y1900D01*
X933Y1900D01*
X934Y1900D01*
X935Y1900D01*
X936Y1900D01*
X937Y1900D01*
X938Y1900D01*
X939Y1900D01*
X940Y1900D01*
X941Y1900D01*
X942Y1900D01*
X943Y1900D01*
X944Y1900D01*
X945Y1900D01*
X946Y1900D01*
X947Y1900D01*
X948Y1900D01*
X949Y1900D01*
X950Y1900D01*
X951Y1900D01*
X952Y1900D01*
X953Y1900D01*
X954Y1900D01*
X955Y1900D01*
X956Y1900D01*
X957Y1900D01*
X958Y1900D01*
X959Y1900D01*
X960Y1900D01*
X961Y1900D01*
X962Y1900D01*
X963Y1900D01*
X964Y1900D01*
X965Y1900D01*
X966Y1900D01*
X967Y1900D01*
X968Y1900D01*
X969Y1900D01*
X970Y1900D01*
X971Y1900D01*
X972Y1900D01*
X973Y1900D01*
X974Y1900D01*
X975Y1900D01*
X976Y1900D01*
X977Y1900D01*
X978Y1900D01*
X979Y1900D01*
X980Y1900D01*
X981Y1900D01*
X982Y1900D01*
X983Y1900D01*
X984Y1900D01*
X985Y1900D01*
X986Y1900D01*
X987Y1900D01*
X988Y1900D01*
X989Y1900D01*
X990Y1900D01*
X991Y1900D01*
X992Y1900D01*
X993Y1900D01*
X994Y1900D01*
X995Y1900D01*
X996Y1900D01*
X997Y1900D01*
X998Y1900D01*
X999Y1900D01*
X1000Y1900D01*
X1001Y1900D01*
X1002Y1900D01*
X1003Y1900D01*
X1004Y1900D01*
X1005Y1900D01*
X1006Y1900D01*
X1007Y1900D01*
X1008Y1900D01*
X1009Y1900D01*
X1010Y1900D01*
X1011Y1900D01*
X1012Y1900D01*
X1013Y1900D01*
X1014Y1900D01*
X1015Y1900D01*
X1016Y1900D01*
X1017Y1900D01*
X1018Y1900D01*
X1019Y1900D01*
X1020Y1900D01*
X1021Y1900D01*
X1022Y1900D01*
X1023Y1900D01*
X1024Y1900D01*
X1025Y1900D01*
X1026Y1900D01*
X1027Y1900D01*
X1028Y1900D01*
X1029Y1900D01*
X1030Y1900D01*
X1031Y1900D01*
X1032Y1900D01*
X1033Y1900D01*
X1034Y1900D01*
X1035Y1900D01*
X1036Y1900D01*
X1037Y1900D01*
X1038Y1900D01*
X1039Y1900D01*
X1040Y1900D01*
X1041Y1900D01*
X1042Y1900D01*
X1043Y1900D01*
X1044Y1900D01*
X1045Y1900D01*
X1046Y1900D01*
X1047Y1900D01*
X1048Y1900D01*
X1049Y1900D01*
X1050Y1900D01*
X1051Y1900D01*
X1052Y1900D01*
X1053Y1900D01*
X1054Y1900D01*
X1055Y1900D01*
X1056Y1900D01*
X1057Y1900D01*
X1058Y1900D01*
X1059Y1900D01*
X1060Y1900D01*
X1061Y1900D01*
X1062Y1900D01*
X1063Y1900D01*
X1064Y1900D01*
X1065Y1900D01*
X1066Y1900D01*
X1067Y1900D01*
X1068Y1900D01*
X1069Y1900D01*
X1070Y1900D01*
X1071Y1900D01*
X1072Y1900D01*
X1073Y1900D01*
X1074Y1900D01*
X1075Y1900D01*
X1076Y1900D01*
X1077Y1900D01*
X1078Y1900D01*
X1079Y1900D01*
X1080Y1900D01*
X1081Y1900D01*
X1082Y1900D01*
X1083Y1900D01*
X1084Y1900D01*
X1085Y1900D01*
X1086Y1900D01*
X1087Y1900D01*
X1088Y1900D01*
X1089Y1900D01*
X1090Y1900D01*
X1091Y1900D01*
X1092Y1900D01*
X1093Y1900D01*
X1094Y1900D01*
X1095Y1900D01*
X1096Y1900D01*
X1097Y1900D01*
X1098Y1900D01*
X1099Y1900D01*
X1100Y1900D01*
X1101Y1900D01*
X1102Y1900D01*
X1103Y1900D01*
X1104Y1900D01*
X1105Y1900D01*
X1106Y1900D01*
X1107Y1900D01*
X1108Y1900D01*
X1109Y1900D01*
X1110Y1900D01*
X1111Y1900D01*
X1112Y1900D01*
X1113Y1900D01*
X1114Y1900D01*
X1115Y1900D01*
X1116Y1900D01*
X1117Y1900D01*
X1118Y1900D01*
X1119Y1900D01*
X1120Y1900D01*
X1121Y1900D01*
X1122Y1900D01*
X1123Y1900D01*
X1124Y1900D01*
X1125Y1900D01*
X1126Y1900D01*
X1127Y1900D01*
X1128Y1900D01*
X1129Y1900D01*
X1130Y1900D01*
X1131Y1900D01*
X1132Y1900D01*
X1133Y1900D01*
X1134Y1900D01*
X1135Y1900D01*
X1136Y1900D01*
X1137Y1900D01*
X1138Y1900D01*
X1139Y1900D01*
X1140Y1900D01*
X1141Y1900D01*
X1142Y1900D01*
X1143Y1900D01*
X1144Y1900D01*
X1145Y1900D01*
X1146Y1900D01*
X1147Y1900D01*
X1148Y1900D01*
X1149Y1900D01*
X1150Y1900D01*
X1151Y1900D01*
X1152Y1900D01*
X1153Y1900D01*
X1154Y1900D01*
X1155Y1900D01*
X1156Y1900D01*
X1157Y1900D01*
X1158Y1900D01*
X1159Y1900D01*
X1160Y1900D01*
X1161Y1900D01*
X1162Y1900D01*
X1163Y1900D01*
X1164Y1900D01*
X1165Y1900D01*
X1166Y1900D01*
X1167Y1900D01*
X1168Y1900D01*
X1169Y1900D01*
X1170Y1900D01*
X1171Y1900D01*
X1172Y1900D01*
X1173Y1900D01*
X1174Y1900D01*
X1175Y1900D01*
X1176Y1900D01*
X1177Y1900D01*
X1178Y1900D01*
X1179Y1900D01*
X1180Y1900D01*
X1181Y1900D01*
X1182Y1900D01*
X1183Y1900D01*
X1184Y1900D01*
X1185Y1900D01*
X1186Y1900D01*
X1187Y1900D01*
X1188Y1900D01*
X1189Y1900D01*
X1190Y1900D01*
X1191Y1900D01*
X1192Y1900D01*
X1193Y1900D01*
X1194Y1900D01*
X1195Y1900D01*
X1196Y1900D01*
X1197Y1900D01*
X1198Y1900D01*
X1199Y1900D01*
X1200Y1900D01*
X1201Y1900D01*
X1202Y1900D01*
X1203Y1900D01*
X1204Y1900D01*
X1205Y1900D01*
X1206Y1900D01*
X1207Y1900D01*
X1208Y1900D01*
X1209Y1900D01*
X1210Y1900D01*
X1211Y1900D01*
X1212Y1900D01*
X1213Y1900D01*
X1214Y1900D01*
X1215Y1900D01*
X1216Y1900D01*
X1217Y1900D01*
X1218Y1900D01*
X1219Y1900D01*
X1220Y1900D01*
X1221Y1900D01*
X1222Y1900D01*
X1223Y1900D01*
X1224Y1900D01*
X1225Y1900D01*
X1226Y1900D01*
X1227Y1900D01*
X1228Y1900D01*
X1229Y1900D01*
X1230Y1900D01*
X1231Y1900D01*
X1232Y1900D01*
X1233Y1900D01*
X1234Y1900D01*
X1235Y1900D01*
X1236Y1900D01*
X1237Y1900D01*
X1238Y1900D01*
X1239Y1900D01*
X1240Y1900D01*
X1241Y1900D01*
X1242Y1900D01*
X1243Y1900D01*
X1244Y1900D01*
X1245Y1900D01*
X1246Y1900D01*
X1247Y1900D01*
X1248Y1900D01*
X1249Y1900D01*
X1250Y1900D01*
X1251Y1900D01*
X1252Y1900D01*
X1253Y1900D01*
X1254Y1900D01*
X1255Y1900D01*
X1256Y1900D01*
X1257Y1900D01*
X1258Y1900D01*
X1259Y1900D01*
X1260Y1900D01*
X1261Y1900D01*
X1262Y1900D01*
X1263Y1900D01*
X1264Y1900D01*
X1265Y1900D01*
X1266Y1900D01*
X1267Y1900D01*
X1268Y1900D01*
X1269Y1900D01*
X1270Y1900D01*
X1271Y1900D01*
X1272Y1900D01*
X1273Y1900D01*
X1274Y1900D01*
X1275Y1900D01*
X1276Y1900D01*
X1277Y1900D01*
X1278Y1900D01*
X1279Y1900D01*
X1280Y1900D01*
X1281Y1900D01*
X1282Y1900D01*
X1283Y1900D01*
X1284Y1900D01*
X1285Y1900D01*
X1286Y1900D01*
X1287Y1900D01*
X1288Y1900D01*
X1289Y1900D01*
X1290Y1900D01*
X1291Y1900D01*
X1292Y1900D01*
X1293Y1900D01*
X1294Y1900D01*
X1295Y1900D01*
X1296Y1900D01*
X1297Y1900D01*
X1298Y1900D01*
X1299Y1900D01*
X1300Y1900D01*
X1301Y1900D01*
X1302Y1900D01*
X1303Y1900D01*
X1304Y1900D01*
X1305Y1900D01*
X1306Y1900D01*
X1307Y1900D01*
X1308Y1900D01*
X1309Y1900D01*
X1310Y1900D01*
X1311Y1900D01*
X1312Y1900D01*
X1313Y1900D01*
X1314Y1900D01*
X1315Y1900D01*
X1316Y1900D01*
X1317Y1900D01*
X1318Y1900D01*
X1319Y1900D01*
X1320Y1900D01*
X1321Y1900D01*
X1322Y1900D01*
X1323Y1900D01*
X1324Y1900D01*
X1325Y1900D01*
X1326Y1900D01*
X1327Y1900D01*
X1328Y1900D01*
X1329Y1900D01*
X1330Y1900D01*
X1331Y1900D01*
X1332Y1900D01*
X1333Y1900D01*
X1334Y1900D01*
X1335Y1900D01*
X1336Y1900D01*
X1337Y1900D01*
X1338Y1900D01*
X1339Y1900D01*
X1340Y1900D01*
X1341Y1900D01*
X1342Y1900D01*
X1343Y1900D01*
X1344Y1900D01*
X1345Y1900D01*
X1346Y1900D01*
X1347Y1900D01*
X1348Y1900D01*
X1349Y1900D01*
X1350Y1900D01*
X1351Y1900D01*
X1352Y1900D01*
X1353Y1900D01*
X1354Y1900D01*
X1355Y1900D01*
X1356Y1900D01*
X1357Y1900D01*
X1358Y1900D01*
X1359Y1900D01*
X1360Y1900D01*
X1361Y1900D01*
X1362Y1900D01*
X1363Y1900D01*
X1364Y1900D01*
X1365Y1900D01*
X1366Y1900D01*
X1367Y1900D01*
X1368Y1900D01*
X1369Y1900D01*
X1370Y1900D01*
X1371Y1900D01*
X1372Y1900D01*
X1373Y1900D01*
X1374Y1900D01*
X1375Y1900D01*
X1376Y1900D01*
X1377Y1900D01*
X1378Y1900D01*
X1379Y1900D01*
X1380Y1900D01*
X1381Y1900D01*
X1382Y1900D01*
X1383Y1900D01*
X1384Y1900D01*
X1385Y1900D01*
X1386Y1900D01*
X1387Y1900D01*
X1388Y1900D01*
X1389Y1900D01*
X1390Y1900D01*
X1391Y1900D01*
X1392Y1900D01*
X1393Y1900D01*
X1394Y1900D01*
X1395Y1900D01*
X1396Y1900D01*
X1397Y1900D01*
X1398Y1900D01*
X1399Y1900D01*
X1400Y1900D01*
X1401Y1900D01*
X1402Y1900D01*
X1403Y1900D01*
X1404Y1900D01*
X1405Y1900D01*
X1406Y1900D01*
X1407Y1900D01*
X1408Y1900D01*
X1409Y1900D01*
X1410Y1900D01*
X1411Y1900D01*
X1412Y1900D01*
X1413Y1900D01*
X1414Y1900D01*
X1415Y1900D01*
X1416Y1900D01*
X1417Y1900D01*
X1418Y1900D01*
X1419Y1900D01*
X1420Y1900D01*
X1421Y1900D01*
X1422Y1900D01*
X1423Y1900D01*
X1424Y1900D01*
X1425Y1900D01*
X1426Y1900D01*
X1427Y1900D01*
X1428Y1900D01*
X1429Y1900D01*
X1430Y1900D01*
X1431Y1900D01*
X1432Y1900D01*
X1433Y1900D01*
X1434Y1900D01*
X1435Y1900D01*
X1436Y1900D01*
X1437Y1900D01*
X1438Y1900D01*
X1439Y1900D01*
X1440Y1900D01*
X1441Y1900D01*
X1442Y1900D01*
X1443Y1900D01*
X1444Y1900D01*
X1445Y1900D01*
X1446Y1900D01*
X1447Y1900D01*
X1448Y1900D01*
X1449Y1900D01*
X1450Y1900D01*
X1451Y1900D01*
X1452Y1900D01*
X1453Y1900D01*
X1454Y1900D01*
X1455Y1900D01*
X1456Y1900D01*
X1457Y1900D01*
X1458Y1900D01*
X1459Y1900D01*
X1460Y1900D01*
X1461Y1900D01*
X1462Y1900D01*
X1463Y1900D01*
X1464Y1900D01*
X1465Y1900D01*
X1466Y1900D01*
X1467Y1900D01*
X1468Y1900D01*
X1469Y1900D01*
X1470Y1900D01*
X1471Y1900D01*
X1472Y1900D01*
X1473Y1900D01*
X1474Y1900D01*
X1475Y1900D01*
X1476Y1900D01*
X1477Y1900D01*
X1478Y1900D01*
X1479Y1900D01*
X1480Y1900D01*
X1481Y1900D01*
X1482Y1900D01*
X1483Y1900D01*
X1484Y1900D01*
X1485Y1900D01*
X1486Y1900D01*
X1487Y1900D01*
X1488Y1900D01*
X1489Y1900D01*
X1490Y1900D01*
X1491Y1900D01*
X1492Y1900D01*
X1493Y1900D01*
X1494Y1900D01*
X1495Y1900D01*
X1496Y1900D01*
X1497Y1900D01*
X1498Y1900D01*
X1499Y1900D01*
X1500Y1900D01*
X1501Y1900D01*
X1502Y1900D01*
X1503Y1900D01*
X1504Y1900D01*
X1505Y1900D01*
X1506Y1900D01*
X1507Y1900D01*
X1508Y1900D01*
X1509Y1900D01*
X1510Y1900D01*
X1511Y1900D01*
X1512Y1900D01*
X1513Y1900D01*
X1514Y1900D01*
X1515Y1900D01*
X1516Y1900D01*
X1517Y1900D01*
X1518Y1900D01*
X1519Y1900D01*
X1520Y1900D01*
X1521Y1900D01*
X1522Y1900D01*
X1523Y1900D01*
X1524Y1900D01*
X1525Y1900D01*
X1526Y1900D01*
X1527Y1900D01*
X1528Y1900D01*
X1529Y1900D01*
X1530Y1900D01*
X1531Y1900D01*
X1532Y1900D01*
X1533Y1900D01*
X1534Y1900D01*
X1535Y1900D01*
X1536Y1900D01*
X1537Y1900D01*
X1538Y1900D01*
X1539Y1900D01*
X1540Y1900D01*
X1541Y1900D01*
X1542Y1900D01*
X1543Y1900D01*
X1544Y1900D01*
X1545Y1900D01*
X1546Y1900D01*
X1547Y1900D01*
X1548Y1900D01*
X1549Y1900D01*
X1550Y1900D01*
X1551Y1900D01*
X1552Y1900D01*
X1553Y1900D01*
X1554Y1900D01*
X1555Y1900D01*
X1556Y1900D01*
X1557Y1900D01*
X1558Y1900D01*
X1559Y1900D01*
X1560Y1900D01*
X1561Y1900D01*
X1562Y1900D01*
X1563Y1900D01*
X1564Y1900D01*
X1565Y1900D01*
X1566Y1900D01*
X1567Y1900D01*
X1568Y1900D01*
X1569Y1900D01*
X1570Y1900D01*
X1571Y1900D01*
X1572Y1900D01*
X1573Y1900D01*
X1574Y1900D01*
X1575Y1900D01*
X1576Y1900D01*
X1577Y1900D01*
X1578Y1900D01*
X1579Y1900D01*
X1580Y1900D01*
X1581Y1900D01*
X1582Y1900D01*
X1583Y1900D01*
X1584Y1900D01*
X1585Y1900D01*
X1586Y1900D01*
X1587Y1900D01*
X1588Y1900D01*
X1589Y1900D01*
X1590Y1900D01*
X1591Y1900D01*
X1592Y1900D01*
X1593Y1900D01*
X1594Y1900D01*
X1595Y1900D01*
X1596Y1900D01*
X1597Y1900D01*
X1598Y1900D01*
X1599Y1900D01*
X1600Y1900D01*
X1601Y1900D01*
X1602Y1900D01*
X1603Y1900D01*
X1604Y1900D01*
X1605Y1900D01*
X1606Y1900D01*
X1607Y1900D01*
X1608Y1900D01*
X1609Y1900D01*
X1610Y1900D01*
X1611Y1900D01*
X1612Y1900D01*
X1613Y1900D01*
X1614Y1900D01*
X1615Y1900D01*
X1616Y1900D01*
X1617Y1900D01*
X1618Y1900D01*
X1619Y1900D01*
X1620Y1900D01*
X1621Y1900D01*
X1622Y1900D01*
X1623Y1900D01*
X1624Y1900D01*
X1625Y1900D01*
X1626Y1900D01*
X1627Y1900D01*
X1628Y1900D01*
X1629Y1900D01*
X1630Y1900D01*
X1631Y1900D01*
X1632Y1900D01*
X1633Y1900D01*
X1634Y1900D01*
X1635Y1900D01*
X1636Y1900D01*
X1637Y1900D01*
X1638Y1900D01*
X1639Y1900D01*
X1640Y1900D01*
X1641Y1900D01*
X1642Y1900D01*
X1643Y1900D01*
X1644Y1900D01*
X1645Y1900D01*
X1646Y1900D01*
X1647Y1900D01*
X1648Y1900D01*
X1649Y1900D01*
X1650Y1900D01*
X1651Y1900D01*
X1652Y1900D01*
X1653Y1900D01*
X1654Y1900D01*
X1655Y1900D01*
X1656Y1900D01*
X1657Y1900D01*
X1658Y1900D01*
X1659Y1900D01*
X1660Y1900D01*
X1661Y1900D01*
X1662Y1900D01*
X1663Y1900D01*
X1664Y1900D01*
X1665Y1900D01*
X1666Y1900D01*
X1667Y1900D01*
X1668Y1900D01*
X1669Y1900D01*
X1670Y1900D01*
X1671Y1900D01*
X1672Y1900D01*
X1673Y1900D01*
X1674Y1900D01*
X1675Y1900D01*
X1676Y1900D01*
X1677Y1900D01*
X1678Y1900D01*
X1679Y1900D01*
X1680Y1900D01*
X1681Y1900D01*
X1682Y1900D01*
X1683Y1900D01*
X1684Y1900D01*
X1685Y1900D01*
X1686Y1900D01*
X1687Y1900D01*
X1688Y1900D01*
X1689Y1900D01*
X1690Y1900D01*
X1691Y1900D01*
X1692Y1900D01*
X1693Y1900D01*
X1694Y1900D01*
X1695Y1900D01*
X1696Y1900D01*
X1697Y1900D01*
X1698Y1900D01*
X1699Y1900D01*
X1700Y1900D01*
X1701Y1900D01*
X1702Y1900D01*
X1703Y1900D01*
X1704Y1900D01*
X1705Y1900D01*
X1706Y1900D01*
X1707Y1900D01*
X1708Y1900D01*
X1709Y1900D01*
X1710Y1900D01*
X1711Y1900D01*
X1712Y1900D01*
X1713Y1900D01*
X1714Y1900D01*
X1715Y1900D01*
X1716Y1900D01*
X1717Y1900D01*
X1718Y1900D01*
X1719Y1900D01*
X1720Y1900D01*
X1721Y1900D01*
X1722Y1900D01*
X1723Y1900D01*
X1724Y1900D01*
X1725Y1900D01*
X1726Y1900D01*
X1727Y1900D01*
X1728Y1900D01*
X1729Y1900D01*
X1730Y1900D01*
X1731Y1900D01*
X1732Y1900D01*
X1733Y1900D01*
X1734Y1900D01*
X1735Y1900D01*
X1736Y1900D01*
X1737Y1900D01*
X1738Y1900D01*
X1739Y1900D01*
X1740Y1900D01*
X1741Y1900D01*
X1742Y1900D01*
X1743Y1900D01*
X1744Y1900D01*
X1745Y1900D01*
X1746Y1900D01*
X1747Y1900D01*
X1748Y1900D01*
X1749Y1900D01*
X1750Y1900D01*
X1751Y1900D01*
X1752Y1900D01*
X1753Y1900D01*
X1754Y1900D01*
X1755Y1900D01*
X1756Y1900D01*
X1757Y1900D01*
X1758Y1900D01*
X1759Y1900D01*
X1760Y1900D01*
X1761Y1900D01*
X1762Y1900D01*
X1763Y1900D01*
X1764Y1900D01*
X1765Y1900D01*
X1766Y1900D01*
X1767Y1900D01*
X1768Y1900D01*
X1769Y1900D01*
X1770Y1900D01*
X1771Y1900D01*
X1772Y1900D01*
X1773Y1900D01*
X1774Y1900D01*
X1775Y1900D01*
X1776Y1900D01*
X1777Y1900D01*
X1778Y1900D01*
X1779Y1900D01*
X1780Y1900D01*
X1781Y1900D01*
X1782Y1900D01*
X1783Y1900D01*
X1784Y1900D01*
X1785Y1900D01*
X1786Y1900D01*
X1787Y1900D01*
X1788Y1900D01*
X1789Y1900D01*
X1790Y1900D01*
X1791Y1900D01*
X1792Y1900D01*
X1793Y1900D01*
X1794Y1900D01*
X1795Y1900D01*
X1796Y1900D01*
X1797Y1900D01*
X1798Y1900D01*
X1799Y1900D01*
X1800Y1900D01*
X1801Y1900D01*
X1802Y1900D01*
X1803Y1900D01*
X1804Y1900D01*
X1805Y1900D01*
X1806Y1900D01*
X1807Y1900D01*
X1808Y1900D01*
X1809Y1900D01*
X1810Y1900D01*
X1811Y1900D01*
X1812Y1900D01*
X1813Y1900D01*
X1814Y1900D01*
X1815Y1900D01*
X1816Y1900D01*
X1817Y1900D01*
X1818Y1900D01*
X1819Y1900D01*
X1820Y1900D01*
X1821Y1900D01*
X1822Y1900D01*
X1823Y1900D01*
X1824Y1900D01*
X1825Y1900D01*
X1826Y1900D01*
X1827Y1900D01*
X1828Y1900D01*
X1829Y1900D01*
X1830Y1900D01*
X1831Y1900D01*
X1832Y1900D01*
X1833Y1900D01*
X1834Y1900D01*
X1835Y1900D01*
X1836Y1900D01*
X1837Y1900D01*
X1838Y1900D01*
X1839Y1900D01*
X1840Y1900D01*
X1841Y1900D01*
X1842Y1900D01*
X1843Y1900D01*
X1844Y1900D01*
X1845Y1900D01*
X1846Y1900D01*
X1847Y1900D01*
X1848Y1900D01*
X1849Y1900D01*
X1850Y1900D01*
X1851Y1900D01*
X1852Y1900D01*
X1853Y1900D01*
X1854Y1900D01*
X1855Y1900D01*
X1856Y1900D01*
X1857Y1900D01*
X1858Y1900D01*
X1859Y1900D01*
X1860Y1900D01*
X1861Y1900D01*
X1862Y1900D01*
X1863Y1900D01*
X1864Y1900D01*
X1865Y1900D01*
X1866Y1900D01*
X1867Y1900D01*
X1868Y1900D01*
X1869Y1900D01*
X1870Y1900D01*
X1871Y1900D01*
X1872Y1900D01*
X1873Y1900D01*
X1874Y1900D01*
X1875Y1900D01*
X1876Y1900D01*
X1877Y1900D01*
X1878Y1900D01*
X1879Y1900D01*
X1880Y1900D01*
X1881Y1900D01*
X1882Y1900D01*
X1883Y1900D01*
X1884Y1900D01*
X1885Y1900D01*
X1886Y1900D01*
X1887Y1900D01*
X1888Y1900D01*
X1889Y1900D01*
X1890Y1900D01*
X1891Y1900D01*
X1892Y1900D01*
X1893Y1900D01*
X1894Y1900D01*
X1895Y1900D01*
X1896Y1900D01*
X1897Y1900D01*
X1898Y1900D01*
X1899Y1900D01*
X1900Y1900D01*
X1901Y1900D01*
X1902Y1900D01*
X1903Y1900D01*
X1904Y1900D01*
X1905Y1900D01*
X1906Y1900D01*
X1907Y1900D01*
X1908Y1900D01*
X1909Y1900D01*
X1910Y1900D01*
X1911Y1900D01*
X1912Y1900D01*
X1913Y1900D01*
X1914Y1900D01*
X1915Y1900D01*
X1916Y1900D01*
X1917Y1900D01*
X1918Y1900D01*
X1919Y1900D01*
X1920Y1900D01*
X1921Y1900D01*
X1922Y1900D01*
X1923Y1900D01*
X1924Y1900D01*
X1925Y1900D01*
X1926Y1900D01*
X1927Y1900D01*
X1928Y1900D01*
X1929Y1900D01*
X1930Y1900D01*
X1931Y1900D01*
X1932Y1900D01*
X1933Y1900D01*
X1934Y1900D01*
X1935Y1900D01*
X1936Y1900D01*
X1937Y1900D01*
X1938Y1900D01*
X1939Y1900D01*
X1940Y1900D01*
X1941Y1900D01*
X1942Y1900D01*
X1943Y1900D01*
X1944Y1900D01*
X1945Y1900D01*
X1946Y1900D01*
X1947Y1900D01*
X1948Y1900D01*
X1949Y1900D01*
X1950Y1900D01*
X1951Y1900D01*
X1952Y1900D01*
X1953Y1900D01*
X1954Y1900D01*
X1955Y1900D01*
X1956Y1900D01*
X1957Y1900D01*
X1958Y1900D01*
X1959Y1900D01*
X1960Y1900D01*
X1961Y1900D01*
X1962Y1900D01*
X1963Y1900D01*
X1964Y1900D01*
X1965Y1900D01*
X1966Y1900D01*
X1967Y1900D01*
X1968Y1900D01*
X1969Y1900D01*
X1970Y1900D01*
X1971Y1900D01*
X1972Y1900D01*
X1973Y1900D01*
X1974Y1900D01*
X1975Y1900D01*
X1976Y1900D01*
X1977Y1900D01*
X1978Y1900D01*
X1979Y1900D01*
X1980Y1900D01*
X1981Y1900D01*
X1982Y1900D01*
X1983Y1900D01*
X1984Y1900D01*
X1985Y1900D01*
X1986Y1900D01*
X1987Y1900D01*
X1988Y1900D01*
X1989Y1900D01*
X1990Y1900D01*
X1991Y1900D01*
X1992Y1900D01*
X1993Y1900D01*
X1994Y1900D01*
X1995Y1900D01*
X1996Y1900D01*
X1997Y1900D01*
X1998Y1900D01*
X1999Y1900D01*
X2000Y1900D01*
X2001Y1900D01*
X2002Y1900D01*
X2003Y1900D01*
X2004Y1900D01*
X2005Y1900D01*
X2006Y1900D01*
X2007Y1900D01*
X2008Y1900D01*
X2009Y1900D01*
X2010Y1900D01*
X2011Y1900D01*
X2012Y1900D01*
X2013Y1900D01*
X2014Y1900D01*
X2015Y1900D01*
X2016Y1900D01*
X2017Y1900D01*
X2018Y1900D01*
X2019Y1900D01*
X2020Y1900D01*
X2021Y1900D01*
X2022Y1900D01*
X2023Y1900D01*
X2024Y1900D01*
X2025Y1900D01*
X2026Y1900D01*
X2027Y1900D01*
X2028Y1900D01*
X2029Y1900D01*
X2030Y1900D01*
X2031Y1900D01*
X2032Y1900D01*
X2033Y1900D01*
X2034Y1900D01*
X2035Y1900D01*
X2036Y1900D01*
X2037Y1900D01*
X2038Y1900D01*
X2039Y1900D01*
X2040Y1900D01*
X2041Y1900D01*
X2042Y1900D01*
X2043Y1900D01*
X2044Y1900D01*
X2045Y1900D01*
X2046Y1900D01*
X2047Y1900D01*
X2048Y1900D01*
X2049Y1900D01*
X2050Y1900D01*
X2051Y1900D01*
X2052Y1900D01*
X2053Y1900D01*
X2054Y1900D01*
X2055Y1900D01*
X2056Y1900D01*
X2057Y1900D01*
X2058Y1900D01*
X2059Y1900D01*
X2060Y1900D01*
X2061Y1900D01*
X2062Y1900D01*
X2063Y1900D01*
X2064Y1900D01*
X2065Y1900D01*
X2066Y1900D01*
X2067Y1900D01*
X2068Y1900D01*
X2069Y1900D01*
X2070Y1900D01*
X2071Y1900D01*
X2072Y1900D01*
X2073Y1900D01*
X2074Y1900D01*
X2075Y1900D01*
X2076Y1900D01*
X2077Y1900D01*
X2078Y1900D01*
X2079Y1900D01*
X2080Y1900D01*
X2081Y1900D01*
X2082Y1900D01*
X2083Y1900D01*
X2084Y1900D01*
X2085Y1900D01*
X2086Y1900D01*
X2087Y1900D01*
X2088Y1900D01*
X2089Y1900D01*
X2090Y1900D01*
X2091Y1900D01*
X2092Y1900D01*
X2093Y1900D01*
X2094Y1900D01*
X2095Y1900D01*
X2096Y1900D01*
X2097Y1900D01*
X2098Y1900D01*
X2099Y1900D01*
X2100Y1900D01*
X2101Y1900D01*
X2102Y1900D01*
X2103Y1900D01*
X2104Y1900D01*
X2105Y1900D01*
X2106Y1900D01*
X2107Y1900D01*
X2108Y1900D01*
X2109Y1900D01*
X2110Y1900D01*
X2111Y1900D01*
X2112Y1900D01*
X2113Y1900D01*
X2114Y1900D01*
X2115Y1900D01*
X2116Y1900D01*
X2117Y1900D01*
X2118Y1900D01*
X2119Y1900D01*
X2120Y1900D01*
X2121Y1900D01*
X2122Y1900D01*
X2123Y1900D01*
X2124Y1900D01*
X2125Y1900D01*
X2126Y1900D01*
X2127Y1900D01*
X2128Y1900D01*
X2129Y1900D01*
X2130Y1900D01*
X2131Y1900D01*
X2132Y1900D01*
X2133Y1900D01*
X2134Y1900D01*
X2135Y1900D01*
X2136Y1900D01*
X2137Y1900D01*
X2138Y1900D01*
X2139Y1900D01*
X2140Y1900D01*
X2141Y1900D01*
X2142Y1900D01*
X2143Y1900D01*
X2144Y1900D01*
X2145Y1900D01*
X2146Y1900D01*
X2147Y1900D01*
X2148Y1900D01*
X2149Y1900D01*
X2150Y1900D01*
X2151Y1900D01*
X2152Y1900D01*
X2153Y1900D01*
X2154Y1900D01*
X2155Y1900D01*
X2156Y1900D01*
X2157Y1900D01*
X2158Y1900D01*
X2159Y1900D01*
X2160Y1900D01*
X2161Y1900D01*
X2162Y1900D01*
X2163Y1900D01*
X2164Y1900D01*
X2165Y1900D01*
X2166Y1900D01*
X2167Y1900D01*
X2168Y1900D01*
X2169Y1900D01*
X2170Y1900D01*
X2171Y1900D01*
X2172Y1900D01*
X2173Y1900D01*
X2174Y1900D01*
X2175Y1900D01*
X2176Y1900D01*
X2177Y1900D01*
X2178Y1900D01*
X2179Y1900D01*
X2180Y1900D01*
X2181Y1900D01*
X2182Y1900D01*
X2183Y1900D01*
X2184Y1900D01*
X2185Y1900D01*
X2186Y1900D01*
X2187Y1900D01*
X2188Y1900D01*
X2189Y1900D01*
X2190Y1900D01*
X2191Y1900D01*
X2192Y1900D01*
X2193Y1900D01*
X2194Y1900D01*
X2195Y1900D01*
X2196Y1900D01*
X2197Y1900D01*
X2198Y1900D01*
X2199Y1900D01*
X2200Y1900D01*
X2201Y1900D01*
X2202Y1900D01*
X2203Y1900D01*
X2204Y1900D01*
X2205Y1900D01*
X2206Y1900D01*
X2207Y1900D01*
X2208Y1900D01*
X2209Y1900D01*
X2210Y1900D01*
X2211Y1900D01*
X2212Y1900D01*
X2213Y1900D01*
X2214Y1900D01*
X2215Y1900D01*
X2216Y1900D01*
X2217Y1900D01*
X2218Y1900D01*
X2219Y1900D01*
X2220Y1900D01*
X2221Y1900D01*
X2222Y1900D01*
X2223Y1900D01*
X2224Y1900D01*
X2225Y1900D01*
X2226Y1900D01*
X2227Y1900D01*
X2228Y1900D01*
X2229Y1900D01*
X2230Y1900D01*
X2231Y1900D01*
X2232Y1900D01*
X2233Y1900D01*
X2234Y1900D01*
X2235Y1900D01*
X2236Y1900D01*
X2237Y1900D01*
X2238Y1900D01*
X2239Y1900D01*
X2240Y1900D01*
X2241Y1900D01*
X2242Y1900D01*
X2243Y1900D01*
X2244Y1900D01*
X2245Y1900D01*
X2246Y1900D01*
X2247Y1900D01*
X2248Y1900D01*
X2249Y1900D01*
X2250Y1900D01*
X2251Y1900D01*
X2252Y1900D01*
X2253Y1900D01*
X2254Y1900D01*
X2255Y1900D01*
X2256Y1900D01*
X2257Y1900D01*
X2258Y1900D01*
X2259Y1900D01*
X2260Y1900D01*
X2261Y1900D01*
X2262Y1900D01*
X2263Y1900D01*
X2264Y1900D01*
X2265Y1900D01*
X2266Y1900D01*
X2267Y1900D01*
X2268Y1900D01*
X2269Y1900D01*
X2270Y1900D01*
X2271Y1900D01*
X2272Y1900D01*
X2273Y1900D01*
X2274Y1900D01*
X2275Y1900D01*
X2276Y1900D01*
X2277Y1900D01*
X2278Y1900D01*
X2279Y1900D01*
X2280Y1900D01*
X2281Y1900D01*
X2282Y1900D01*
X2283Y1900D01*
X2284Y1900D01*
X2285Y1900D01*
X2286Y1900D01*
X2287Y1900D01*
X2288Y1900D01*
X2289Y1900D01*
X2290Y1900D01*
X2291Y1900D01*
X2292Y1900D01*
X2293Y1900D01*
X2294Y1900D01*
X2295Y1900D01*
X2296Y1900D01*
X2297Y1900D01*
X2298Y1900D01*
X2299Y1900D01*
X2300Y1900D01*
X2301Y1900D01*
X2302Y1900D01*
X2303Y1900D01*
X2304Y1900D01*
X2305Y1900D01*
X2306Y1900D01*
X2307Y1900D01*
X2308Y1900D01*
X2309Y1900D01*
X2310Y1900D01*
X2311Y1900D01*
X2312Y1900D01*
X2313Y1900D01*
X2314Y1900D01*
X2315Y1900D01*
X2316Y1900D01*
X2317Y1900D01*
X2318Y1900D01*
X2319Y1900D01*
X2320Y1900D01*
X2321Y1900D01*
X2322Y1900D01*
X2323Y1900D01*
X2324Y1900D01*
X2325Y1900D01*
X2326Y1900D01*
X2327Y1900D01*
X2328Y1900D01*
X2329Y1900D01*
X2330Y1900D01*
X2331Y1900D01*
X2332Y1900D01*
X2333Y1900D01*
X2334Y1900D01*
X2335Y1900D01*
X2336Y1900D01*
X2337Y1900D01*
X2338Y1900D01*
X2339Y1900D01*
X2340Y1900D01*
X2341Y1900D01*
X2342Y1900D01*
X2343Y1900D01*
X2344Y1900D01*
X2345Y1900D01*
X2346Y1900D01*
X2347Y1900D01*
X2348Y1900D01*
X2349Y1900D01*
X2350Y1900D01*
X2351Y1900D01*
X2352Y1900D01*
X2353Y1900D01*
X2354Y1900D01*
X2355Y1900D01*
X2356Y1900D01*
X2357Y1900D01*
X2358Y1900D01*
X2359Y1900D01*
X2360Y1900D01*
X2361Y1900D01*
X2362Y1900D01*
X2363Y1900D01*
X2364Y1900D01*
X2365Y1900D01*
X2366Y1900D01*
X2367Y1900D01*
X2368Y1900D01*
X2369Y1900D01*
X2370Y1900D01*
X2371Y1900D01*
X2372Y1900D01*
X2373Y1900D01*
X2374Y1900D01*
X2375Y1900D01*
X2376Y1900D01*
X2377Y1900D01*
X2378Y1900D01*
X2379Y1900D01*
X2380Y1900D01*
X2381Y1900D01*
X2382Y1900D01*
X2383Y1900D01*
X2384Y1900D01*
X2385Y1900D01*
X2386Y1900D01*
X2387Y1900D01*
X2388Y1900D01*
X2389Y1900D01*
X2390Y1900D01*
X2391Y1900D01*
X2392Y1900D01*
X2393Y1900D01*
X2394Y1900D01*
X2395Y1900D01*
X2396Y1900D01*
X2397Y1900D01*
X2398Y1900D01*
X2399Y1900D01*
X2400Y1900D01*
X2401Y1900D01*
X2402Y1900D01*
X2403Y1900D01*
X2404Y1900D01*
X2405Y1900D01*
X2406Y1900D01*
X2407Y1900D01*
X2408Y1900D01*
X2409Y1900D01*
X2410Y1900D01*
X2411Y1900D01*
X2412Y1900D01*
X2413Y1900D01*
X2414Y1900D01*
X2415Y1900D01*
X2416Y1900D01*
X2417Y1900D01*
X2418Y1900D01*
X2419Y1900D01*
X2420Y1900D01*
X2421Y1900D01*
X2422Y1900D01*
X2423Y1900D01*
X2424Y1900D01*
X2425Y1900D01*
X2426Y1900D01*
X2427Y1900D01*
X2428Y1900D01*
X2429Y1900D01*
X2430Y1900D01*
X2431Y1900D01*
X2432Y1900D01*
X2433Y1900D01*
X2434Y1900D01*
X2435Y1900D01*
X2436Y1900D01*
X2437Y1900D01*
X2438Y1900D01*
X2439Y1900D01*
X2440Y1900D01*
X2441Y1900D01*
X2442Y1900D01*
X2443Y1900D01*
X2444Y1900D01*
X2445Y1900D01*
X2446Y1900D01*
X2447Y1900D01*
X2448Y1900D01*
X2449Y1900D01*
X2450Y1900D01*
X2451Y1900D01*
X2452Y1900D01*
X2453Y1900D01*
X2454Y1900D01*
X2455Y1900D01*
X2456Y1900D01*
X2457Y1900D01*
X2458Y1900D01*
X2459Y1900D01*
X2460Y1900D01*
X2461Y1900D01*
X2462Y1900D01*
X2463Y1900D01*
X2464Y1900D01*
X2465Y1900D01*
X2466Y1900D01*
X2467Y1900D01*
X2468Y1900D01*
X2469Y1900D01*
X2470Y1900D01*
X2471Y1900D01*
X2472Y1900D01*
X2473Y1900D01*
X2474Y1900D01*
X2475Y1900D01*
X2476Y1900D01*
X2477Y1900D01*
X2478Y1900D01*
X2479Y1900D01*
X2480Y1900D01*
X2481Y1900D01*
X2482Y1900D01*
X2483Y1900D01*
X2484Y1900D01*
X2485Y1900D01*
X2486Y1900D01*
X2487Y1900D01*
X2488Y1900D01*
X2489Y1900D01*
X2490Y1900D01*
X2491Y1900D01*
X2492Y1900D01*
X2493Y1900D01*
X2494Y1900D01*
X2495Y1900D01*
X2496Y1900D01*
X2497Y1900D01*
X2498Y1900D01*
X2499Y1900D01*
X2500Y1900D01*
X2501Y1900D01*
X2502Y1900D01*
X2503Y1900D01*
X2504Y1900D01*
X2505Y1900D01*
X2506Y1900D01*
X2507Y1900D01*
X2508Y1900D01*
X2509Y1900D01*
X2510Y1900D01*
X2511Y1900D01*
X2512Y1900D01*
X2513Y1900D01*
X2514Y1900D01*
X2515Y1900D01*
X2516Y1900D01*
X2517Y1899D01*
X2518Y1899D01*
X2519Y1899D01*
X2520Y1899D01*
X2521Y1899D01*
X2522Y1899D01*
X2523Y1899D01*
X2524Y1899D01*
X2525Y1899D01*
X2526Y1899D01*
X2527Y1899D01*
X2528Y1899D01*
X2529Y1899D01*
X2530Y1899D01*
X2531Y1898D01*
X2532Y1898D01*
X2533Y1898D01*
X2534Y1898D01*
X2535Y1898D01*
X2536Y1898D01*
X2537Y1898D01*
X2538Y1898D01*
X2539Y1898D01*
X2540Y1898D01*
X2541Y1897D01*
X2542Y1897D01*
X2543Y1897D01*
X2544Y1897D01*
X2545Y1897D01*
X2546Y1897D01*
X2547Y1897D01*
X2548Y1897D01*
X2549Y1896D01*
X2550Y1896D01*
X2551Y1896D01*
X2552Y1896D01*
X2553Y1896D01*
X2554Y1896D01*
X2555Y1896D01*
X2556Y1896D01*
X2557Y1895D01*
X2558Y1895D01*
X2559Y1895D01*
X2560Y1895D01*
X2561Y1895D01*
X2562Y1895D01*
X2563Y1894D01*
X2564Y1894D01*
X2565Y1894D01*
X2566Y1894D01*
X2567Y1894D01*
X2568Y1893D01*
X2569Y1893D01*
X2570Y1893D01*
X2571Y1893D01*
X2572Y1893D01*
X2573Y1893D01*
X2574Y1892D01*
X2575Y1892D01*
X2576Y1892D01*
X2577Y1892D01*
X2578Y1891D01*
X2579Y1891D01*
X2580Y1891D01*
X2581Y1891D01*
X2582Y1891D01*
X2583Y1890D01*
X2584Y1890D01*
X2585Y1890D01*
X2586Y1890D01*
X2587Y1889D01*
X2588Y1889D01*
X2589Y1889D01*
X2590Y1889D01*
X2591Y1889D01*
X2592Y1888D01*
X2593Y1888D01*
X2594Y1888D01*
X2595Y1888D01*
X2596Y1887D01*
X2597Y1887D01*
X2598Y1887D01*
X2599Y1886D01*
X2600Y1886D01*
X2601Y1886D01*
X2602Y1886D01*
X2603Y1885D01*
X2604Y1885D01*
X2605Y1885D01*
X2606Y1884D01*
X2607Y1884D01*
X2608Y1884D01*
X2609Y1884D01*
X2610Y1883D01*
X2611Y1883D01*
X2612Y1883D01*
X2613Y1882D01*
X2614Y1882D01*
X2615Y1882D01*
X2616Y1881D01*
X2617Y1881D01*
X2618Y1881D01*
X2619Y1880D01*
X2620Y1880D01*
X2621Y1880D01*
X2622Y1879D01*
X2623Y1879D01*
X2624Y1879D01*
X2625Y1878D01*
X2626Y1878D01*
X2627Y1878D01*
X2628Y1877D01*
X2629Y1877D01*
X2630Y1877D01*
X2631Y1876D01*
X2632Y1876D01*
X2633Y1876D01*
X2634Y1875D01*
X2635Y1875D01*
X2636Y1874D01*
X2637Y1874D01*
X2638Y1874D01*
X2639Y1873D01*
X2640Y1873D01*
X2641Y1872D01*
X2642Y1872D01*
X2643Y1872D01*
X2644Y1871D01*
X2645Y1871D01*
X2646Y1870D01*
X2647Y1870D01*
X2648Y1870D01*
X2649Y1869D01*
X2650Y1869D01*
X2651Y1868D01*
X2652Y1868D01*
X2653Y1868D01*
X2654Y1867D01*
X2655Y1867D01*
X2656Y1866D01*
X2657Y1866D01*
X2658Y1865D01*
X2659Y1865D01*
X2660Y1864D01*
X2661Y1864D01*
X2662Y1863D01*
X2663Y1863D01*
X2664Y1863D01*
X2665Y1862D01*
X2666Y1862D01*
X2667Y1861D01*
X2668Y1861D01*
X2669Y1860D01*
X2670Y1860D01*
X2671Y1859D01*
X2672Y1859D01*
X2673Y1858D01*
X2674Y1858D01*
X2675Y1857D01*
X2676Y1857D01*
X2677Y1856D01*
X2678Y1856D01*
X2679Y1855D01*
X2680Y1855D01*
X2681Y1854D01*
X2682Y1854D01*
X2683Y1853D01*
X2684Y1853D01*
X2685Y1852D01*
X2686Y1851D01*
X2687Y1851D01*
X2688Y1850D01*
X2689Y1850D01*
X2690Y1849D01*
X2691Y1849D01*
X2692Y1848D01*
X2693Y1847D01*
X2694Y1847D01*
X2695Y1846D01*
X2696Y1846D01*
X2697Y1845D01*
X2698Y1845D01*
X2699Y1844D01*
X2700Y1843D01*
X2701Y1843D01*
X2702Y1842D01*
X2703Y1841D01*
X2704Y1841D01*
X2705Y1840D01*
X2706Y1840D01*
X2707Y1839D01*
X2708Y1838D01*
X2709Y1838D01*
X2710Y1837D01*
X2711Y1836D01*
X2712Y1836D01*
X2713Y1835D01*
X2714Y1834D01*
X2715Y1834D01*
X2716Y1833D01*
X2717Y1833D01*
X2718Y1832D01*
X2719Y1831D01*
X2720Y1830D01*
X2721Y1830D01*
X2722Y1829D01*
X2723Y1828D01*
X2724Y1828D01*
X2725Y1827D01*
X2726Y1826D01*
X2727Y1825D01*
X2728Y1825D01*
X2729Y1824D01*
X2730Y1823D01*
X2731Y1823D01*
X2732Y1822D01*
X2733Y1821D01*
X2734Y1820D01*
X2735Y1820D01*
X2736Y1819D01*
X2737Y1818D01*
X2738Y1817D01*
X2739Y1816D01*
X2740Y1816D01*
X2741Y1815D01*
X2742Y1814D01*
X2743Y1813D01*
X2744Y1812D01*
X2745Y1812D01*
X2746Y1811D01*
X2747Y1810D01*
X2748Y1809D01*
X2749Y1808D01*
X2750Y1807D01*
X2751Y1807D01*
X2752Y1806D01*
X2753Y1805D01*
X2754Y1804D01*
X2755Y1803D01*
X2756Y1802D01*
X2757Y1801D01*
X2758Y1801D01*
X2759Y1800D01*
X2760Y1799D01*
X2761Y1798D01*
X2762Y1797D01*
X2763Y1796D01*
X2764Y1795D01*
X2765Y1794D01*
X2766Y1793D01*
X2767Y1792D01*
X2768Y1791D01*
X2769Y1790D01*
X2770Y1789D01*
X2771Y1789D01*
X2772Y1788D01*
X2773Y1787D01*
X2774Y1786D01*
X2775Y1785D01*
X2776Y1784D01*
X2777Y1783D01*
X2778Y1782D01*
X2778Y1781D01*
X2779Y1780D01*
X2780Y1779D01*
X2781Y1778D01*
X2782Y1777D01*
X2783Y1776D01*
X2784Y1775D01*
X2785Y1774D01*
X2786Y1773D01*
X2787Y1772D01*
X2788Y1771D01*
X2789Y1770D01*
X2790Y1769D01*
X2791Y1768D01*
X2791Y1767D01*
X2792Y1766D01*
X2793Y1765D01*
X2794Y1764D01*
X2795Y1763D01*
X2796Y1762D01*
X2797Y1761D01*
X2797Y1760D01*
X2798Y1759D01*
X2799Y1758D01*
X2800Y1757D01*
X2801Y1756D01*
X2802Y1755D01*
X2802Y1754D01*
X2803Y1753D01*
X2804Y1752D01*
X2805Y1751D01*
X2806Y1750D01*
X2806Y1749D01*
X2807Y1748D01*
X2808Y1747D01*
X2809Y1746D01*
X2809Y1745D01*
X2810Y1744D01*
X2811Y1743D01*
X2812Y1742D01*
X2812Y1741D01*
X2813Y1740D01*
X2814Y1739D01*
X2815Y1738D01*
X2815Y1737D01*
X2816Y1736D01*
X2817Y1735D01*
X2817Y1734D01*
X2818Y1733D01*
X2819Y1732D01*
X2820Y1731D01*
X2820Y1730D01*
X2821Y1729D01*
X2822Y1728D01*
X2822Y1727D01*
X2823Y1726D01*
X2824Y1725D01*
X2824Y1724D01*
X2825Y1723D01*
X2826Y1722D01*
X2826Y1721D01*
X2827Y1720D01*
X2827Y1719D01*
X2828Y1718D01*
X2829Y1717D01*
X2829Y1716D01*
X2830Y1715D01*
X2831Y1714D01*
X2831Y1713D01*
X2832Y1712D01*
X2833Y1711D01*
X2833Y1710D01*
X2834Y1709D01*
X2834Y1708D01*
X2835Y1707D01*
X2835Y1706D01*
X2836Y1705D01*
X2837Y1704D01*
X2837Y1703D01*
X2838Y1702D01*
X2838Y1701D01*
X2839Y1700D01*
X2839Y1699D01*
X2840Y1698D01*
X2841Y1697D01*
X2841Y1696D01*
X2842Y1695D01*
X2842Y1694D01*
X2843Y1693D01*
X2843Y1692D01*
X2844Y1691D01*
X2844Y1690D01*
X2845Y1689D01*
X2845Y1688D01*
X2846Y1687D01*
X2846Y1686D01*
X2847Y1685D01*
X2847Y1684D01*
X2848Y1683D01*
X2848Y1682D01*
X2849Y1681D01*
X2849Y1680D01*
X2850Y1679D01*
X2850Y1678D01*
X2851Y1677D01*
X2851Y1676D01*
X2852Y1675D01*
X2852Y1674D01*
X2853Y1673D01*
X2853Y1672D01*
X2854Y1671D01*
X2854Y1670D01*
X2855Y1669D01*
X2855Y1667D01*
X2856Y1666D01*
X2856Y1665D01*
X2857Y1664D01*
X2857Y1663D01*
X2858Y1662D01*
X2858Y1661D01*
X2859Y1660D01*
X2859Y1658D01*
X2860Y1657D01*
X2860Y1656D01*
X2861Y1655D01*
X2861Y1653D01*
X2862Y1652D01*
X2862Y1650D01*
X2863Y1649D01*
X2863Y1648D01*
X2864Y1647D01*
X2864Y1645D01*
X2865Y1644D01*
X2865Y1643D01*
X2866Y1642D01*
X2866Y1640D01*
X2867Y1639D01*
X2867Y1637D01*
X2868Y1636D01*
X2868Y1634D01*
X2869Y1633D01*
X2869Y1631D01*
X2870Y1630D01*
X2870Y1628D01*
X2871Y1627D01*
X2871Y1625D01*
X2872Y1624D01*
X2872Y1622D01*
X2873Y1621D01*
X2873Y1618D01*
X2874Y1617D01*
X2874Y1615D01*
X2875Y1614D01*
X2875Y1611D01*
X2876Y1610D01*
X2876Y1607D01*
X2877Y1606D01*
X2877Y1603D01*
X2878Y1602D01*
X2878Y1599D01*
X2879Y1598D01*
X2879Y1595D01*
X2880Y1594D01*
X2880Y1590D01*
X2881Y1589D01*
X2881Y1586D01*
X2882Y1585D01*
X2882Y1580D01*
X2883Y1579D01*
X2883Y1575D01*
X2884Y1574D01*
X2884Y1569D01*
X2885Y1568D01*
X2885Y1561D01*
X2886Y1560D01*
X2886Y1553D01*
X2887Y1552D01*
X2887Y1543D01*
X2888Y1542D01*
X2888Y1529D01*
X2889Y1528D01*
X2889Y374D01*
X2888Y373D01*
X2888Y360D01*
X2887Y359D01*
X2887Y350D01*
X2886Y349D01*
X2886Y342D01*
X2885Y341D01*
X2885Y334D01*
X2884Y333D01*
X2884Y328D01*
X2883Y327D01*
X2883Y323D01*
X2882Y322D01*
X2882Y317D01*
X2881Y316D01*
X2881Y313D01*
X2880Y312D01*
X2880Y308D01*
X2879Y307D01*
X2879Y304D01*
X2878Y303D01*
X2878Y300D01*
X2877Y299D01*
X2877Y296D01*
X2876Y295D01*
X2876Y292D01*
X2875Y291D01*
X2875Y288D01*
X2874Y287D01*
X2874Y285D01*
X2873Y284D01*
X2873Y281D01*
X2872Y280D01*
X2872Y278D01*
X2871Y277D01*
X2871Y275D01*
X2870Y274D01*
X2870Y272D01*
X2869Y271D01*
X2869Y269D01*
X2868Y268D01*
X2868Y266D01*
X2867Y265D01*
X2867Y263D01*
X2866Y262D01*
X2866Y260D01*
X2865Y259D01*
X2865Y258D01*
X2864Y257D01*
X2864Y255D01*
X2863Y254D01*
X2863Y253D01*
X2862Y252D01*
X2862Y250D01*
X2861Y249D01*
X2861Y247D01*
X2860Y246D01*
X2860Y245D01*
X2859Y244D01*
X2859Y242D01*
X2858Y241D01*
X2858Y240D01*
X2857Y239D01*
X2857Y238D01*
X2856Y237D01*
X2856Y236D01*
X2855Y235D01*
X2855Y233D01*
X2854Y232D01*
X2854Y231D01*
X2853Y230D01*
X2853Y229D01*
X2852Y228D01*
X2852Y227D01*
X2851Y226D01*
X2851Y225D01*
X2850Y224D01*
X2850Y223D01*
X2849Y222D01*
X2849Y221D01*
X2848Y220D01*
X2848Y219D01*
X2847Y218D01*
X2847Y217D01*
X2846Y216D01*
X2846Y215D01*
X2845Y214D01*
X2845Y213D01*
X2844Y212D01*
X2844Y211D01*
X2843Y210D01*
X2843Y209D01*
X2842Y208D01*
X2842Y207D01*
X2841Y206D01*
X2841Y205D01*
X2840Y204D01*
X2839Y203D01*
X2839Y202D01*
X2838Y201D01*
X2838Y200D01*
X2837Y199D01*
X2837Y198D01*
X2836Y197D01*
X2835Y196D01*
X2835Y195D01*
X2834Y194D01*
X2834Y193D01*
X2833Y192D01*
X2833Y191D01*
X2832Y190D01*
X2831Y189D01*
X2831Y188D01*
X2830Y187D01*
X2829Y186D01*
X2829Y185D01*
X2828Y184D01*
X2827Y183D01*
X2827Y182D01*
X2826Y181D01*
X2826Y180D01*
X2825Y179D01*
X2824Y178D01*
X2824Y177D01*
X2823Y176D01*
X2822Y175D01*
X2822Y174D01*
X2821Y173D01*
X2820Y172D01*
X2820Y171D01*
X2819Y170D01*
X2818Y169D01*
X2817Y168D01*
X2817Y167D01*
X2816Y166D01*
X2815Y165D01*
X2815Y164D01*
X2814Y163D01*
X2813Y162D01*
X2812Y161D01*
X2812Y160D01*
X2811Y159D01*
X2810Y158D01*
X2809Y157D01*
X2809Y156D01*
X2808Y155D01*
X2807Y154D01*
X2806Y153D01*
X2806Y152D01*
X2805Y151D01*
X2804Y150D01*
X2803Y149D01*
X2802Y148D01*
X2802Y147D01*
X2801Y146D01*
X2800Y145D01*
X2799Y144D01*
X2798Y143D01*
X2797Y142D01*
X2797Y141D01*
X2796Y140D01*
X2795Y139D01*
X2794Y138D01*
X2793Y137D01*
X2792Y136D01*
X2791Y135D01*
X2791Y134D01*
X2790Y133D01*
X2789Y132D01*
X2788Y131D01*
X2787Y130D01*
X2786Y129D01*
X2785Y128D01*
X2784Y127D01*
X2783Y126D01*
X2782Y125D01*
X2781Y124D01*
X2780Y123D01*
X2779Y122D01*
X2778Y121D01*
X2778Y120D01*
X2777Y119D01*
X2776Y118D01*
X2775Y117D01*
X2774Y116D01*
X2773Y115D01*
X2772Y114D01*
X2771Y114D01*
X2770Y113D01*
X2769Y112D01*
X2768Y111D01*
X2767Y110D01*
X2766Y109D01*
X2765Y108D01*
X2764Y107D01*
X2763Y106D01*
X2762Y105D01*
X2761Y104D01*
X2760Y103D01*
X2759Y102D01*
X2758Y101D01*
X2757Y101D01*
X2756Y100D01*
X2755Y99D01*
X2754Y98D01*
X2753Y97D01*
X2752Y96D01*
X2751Y95D01*
X2750Y95D01*
X2749Y94D01*
X2748Y93D01*
X2747Y92D01*
X2746Y91D01*
X2745Y90D01*
X2744Y90D01*
X2743Y89D01*
X2742Y88D01*
X2741Y87D01*
X2740Y86D01*
X2739Y86D01*
X2738Y85D01*
X2737Y84D01*
X2736Y83D01*
X2735Y82D01*
X2734Y82D01*
X2733Y81D01*
X2732Y80D01*
X2731Y79D01*
X2730Y79D01*
X2729Y78D01*
X2728Y77D01*
X2727Y77D01*
X2726Y76D01*
X2725Y75D01*
X2724Y74D01*
X2723Y74D01*
X2722Y73D01*
X2721Y72D01*
X2720Y72D01*
X2719Y71D01*
X2718Y70D01*
X2717Y70D01*
X2716Y69D01*
X2715Y68D01*
X2714Y68D01*
X2713Y67D01*
X2712Y66D01*
X2711Y66D01*
X2710Y65D01*
X2709Y64D01*
X2708Y64D01*
X2707Y63D01*
X2706Y62D01*
X2705Y62D01*
X2704Y61D01*
X2703Y61D01*
X2702Y60D01*
X2701Y59D01*
X2700Y59D01*
X2699Y58D01*
X2698Y57D01*
X2697Y57D01*
X2696Y56D01*
X2695Y56D01*
X2694Y55D01*
X2693Y55D01*
X2692Y54D01*
X2691Y53D01*
X2690Y53D01*
X2689Y52D01*
X2688Y52D01*
X2687Y51D01*
X2686Y51D01*
X2685Y50D01*
X2684Y49D01*
X2683Y49D01*
X2682Y48D01*
X2681Y48D01*
X2680Y47D01*
X2679Y47D01*
X2678Y46D01*
X2677Y46D01*
X2676Y45D01*
X2675Y45D01*
X2674Y44D01*
X2673Y44D01*
X2672Y43D01*
X2671Y43D01*
X2670Y42D01*
X2669Y42D01*
X2668Y41D01*
X2667Y41D01*
X2666Y40D01*
X2665Y40D01*
X2664Y39D01*
X2663Y39D01*
X2662Y39D01*
X2661Y38D01*
X2660Y38D01*
X2659Y37D01*
X2658Y37D01*
X2657Y36D01*
X2656Y36D01*
X2655Y35D01*
X2654Y35D01*
X2653Y34D01*
X2652Y34D01*
X2651Y34D01*
X2650Y33D01*
X2649Y33D01*
X2648Y32D01*
X2647Y32D01*
X2646Y32D01*
X2645Y31D01*
X2644Y31D01*
X2643Y30D01*
X2642Y30D01*
X2641Y30D01*
X2640Y29D01*
X2639Y29D01*
X2638Y28D01*
X2637Y28D01*
X2636Y28D01*
X2635Y27D01*
X2634Y27D01*
X2633Y26D01*
X2632Y26D01*
X2631Y26D01*
X2630Y25D01*
X2629Y25D01*
X2628Y25D01*
X2627Y24D01*
X2626Y24D01*
X2625Y24D01*
X2624Y23D01*
X2623Y23D01*
X2622Y23D01*
X2621Y22D01*
X2620Y22D01*
X2619Y22D01*
X2618Y21D01*
X2617Y21D01*
X2616Y21D01*
X2615Y20D01*
X2614Y20D01*
X2613Y20D01*
X2612Y19D01*
X2611Y19D01*
X2610Y19D01*
X2609Y18D01*
X2608Y18D01*
X2607Y18D01*
X2606Y18D01*
X2605Y17D01*
X2604Y17D01*
X2603Y17D01*
X2602Y16D01*
X2601Y16D01*
X2600Y16D01*
X2599Y16D01*
X2598Y15D01*
X2597Y15D01*
X2596Y15D01*
X2595Y14D01*
X2594Y14D01*
X2593Y14D01*
X2592Y14D01*
X2591Y13D01*
X2590Y13D01*
X2589Y13D01*
X2588Y13D01*
X2587Y13D01*
X2586Y12D01*
X2585Y12D01*
X2584Y12D01*
X2583Y12D01*
X2582Y11D01*
X2581Y11D01*
X2580Y11D01*
X2579Y11D01*
X2578Y11D01*
X2577Y10D01*
X2576Y10D01*
X2575Y10D01*
X2574Y10D01*
X2573Y9D01*
X2572Y9D01*
X2571Y9D01*
X2570Y9D01*
X2569Y9D01*
X2568Y9D01*
X2567Y8D01*
X2566Y8D01*
X2565Y8D01*
X2564Y8D01*
X2563Y8D01*
X2562Y7D01*
X2561Y7D01*
X2560Y7D01*
X2559Y7D01*
X2558Y7D01*
X2557Y7D01*
X2556Y6D01*
X2555Y6D01*
X2554Y6D01*
X2553Y6D01*
X2552Y6D01*
X2551Y6D01*
X2550Y6D01*
X2549Y6D01*
X2548Y5D01*
X2547Y5D01*
X2546Y5D01*
X2545Y5D01*
X2544Y5D01*
X2543Y5D01*
X2542Y5D01*
X2541Y5D01*
X2540Y4D01*
X2539Y4D01*
X2538Y4D01*
X2537Y4D01*
X2536Y4D01*
X2535Y4D01*
X2534Y4D01*
X2533Y4D01*
X2532Y4D01*
X2531Y4D01*
X2530Y3D01*
X2529Y3D01*
X2528Y3D01*
X2527Y3D01*
X2526Y3D01*
X2525Y3D01*
X2524Y3D01*
X2523Y3D01*
X2522Y3D01*
X2521Y3D01*
X2520Y3D01*
X2519Y3D01*
X2518Y3D01*
X2517Y3D01*
X2516Y2D01*
X2515Y2D01*
X2514Y2D01*
X2513Y2D01*
X2512Y2D01*
X2511Y2D01*
X2510Y2D01*
X2509Y2D01*
X2508Y2D01*
X2507Y2D01*
X2506Y2D01*
X2505Y2D01*
X2504Y2D01*
X2503Y2D01*
X2502Y2D01*
X2501Y2D01*
X2500Y2D01*
X2499Y2D01*
X2498Y2D01*
X2497Y2D01*
X2496Y2D01*
X2495Y2D01*
X2494Y2D01*
X2493Y2D01*
X2492Y2D01*
X2491Y2D01*
X2490Y2D01*
X2489Y2D01*
X2488Y2D01*
X2487Y2D01*
X2486Y2D01*
X2485Y2D01*
X2484Y2D01*
X2483Y2D01*
X2482Y2D01*
X2481Y2D01*
X2480Y2D01*
X2479Y2D01*
X2478Y2D01*
X2477Y2D01*
X2476Y2D01*
X2475Y2D01*
X2474Y2D01*
X2473Y2D01*
X2472Y2D01*
X2471Y2D01*
X2470Y2D01*
X2469Y2D01*
X2468Y2D01*
X2467Y2D01*
X2466Y2D01*
X2465Y2D01*
X2464Y2D01*
X2463Y2D01*
X2462Y2D01*
X2461Y2D01*
X2460Y2D01*
X2459Y2D01*
X2458Y2D01*
X2457Y2D01*
X2456Y2D01*
X2455Y2D01*
X2454Y2D01*
X2453Y2D01*
X2452Y2D01*
X2451Y2D01*
X2450Y2D01*
X2449Y2D01*
X2448Y2D01*
X2447Y2D01*
X2446Y2D01*
X2445Y2D01*
X2444Y2D01*
X2443Y2D01*
X2442Y2D01*
X2441Y2D01*
X2440Y2D01*
X2439Y2D01*
X2438Y2D01*
X2437Y2D01*
X2436Y2D01*
X2435Y2D01*
X2434Y2D01*
X2433Y2D01*
X2432Y2D01*
X2431Y2D01*
X2430Y2D01*
X2429Y2D01*
X2428Y2D01*
X2427Y2D01*
X2426Y2D01*
X2425Y2D01*
X2424Y2D01*
X2423Y2D01*
X2422Y2D01*
X2421Y2D01*
X2420Y2D01*
X2419Y2D01*
X2418Y2D01*
X2417Y2D01*
X2416Y2D01*
X2415Y2D01*
X2414Y2D01*
X2413Y2D01*
X2412Y2D01*
X2411Y2D01*
X2410Y2D01*
X2409Y2D01*
X2408Y2D01*
X2407Y2D01*
X2406Y2D01*
X2405Y2D01*
X2404Y2D01*
X2403Y2D01*
X2402Y2D01*
X2401Y2D01*
X2400Y2D01*
X2399Y2D01*
X2398Y2D01*
X2397Y2D01*
X2396Y2D01*
X2395Y2D01*
X2394Y2D01*
X2393Y2D01*
X2392Y2D01*
X2391Y2D01*
X2390Y2D01*
X2389Y2D01*
X2388Y2D01*
X2387Y2D01*
X2386Y2D01*
X2385Y2D01*
X2384Y2D01*
X2383Y2D01*
X2382Y2D01*
X2381Y2D01*
X2380Y2D01*
X2379Y2D01*
X2378Y2D01*
X2377Y2D01*
X2376Y2D01*
X2375Y2D01*
X2374Y2D01*
X2373Y2D01*
X2372Y2D01*
X2371Y2D01*
X2370Y2D01*
X2369Y2D01*
X2368Y2D01*
X2367Y2D01*
X2366Y2D01*
X2365Y2D01*
X2364Y2D01*
X2363Y2D01*
X2362Y2D01*
X2361Y2D01*
X2360Y2D01*
X2359Y2D01*
X2358Y2D01*
X2357Y2D01*
X2356Y2D01*
X2355Y2D01*
X2354Y2D01*
X2353Y2D01*
X2352Y2D01*
X2351Y2D01*
X2350Y2D01*
X2349Y2D01*
X2348Y2D01*
X2347Y2D01*
X2346Y2D01*
X2345Y2D01*
X2344Y2D01*
X2343Y2D01*
X2342Y2D01*
X2341Y2D01*
X2340Y2D01*
X2339Y2D01*
X2338Y2D01*
X2337Y2D01*
X2336Y2D01*
X2335Y2D01*
X2334Y2D01*
X2333Y2D01*
X2332Y2D01*
X2331Y2D01*
X2330Y2D01*
X2329Y2D01*
X2328Y2D01*
X2327Y2D01*
X2326Y2D01*
X2325Y2D01*
X2324Y2D01*
X2323Y2D01*
X2322Y2D01*
X2321Y2D01*
X2320Y2D01*
X2319Y2D01*
X2318Y2D01*
X2317Y2D01*
X2316Y2D01*
X2315Y2D01*
X2314Y2D01*
X2313Y2D01*
X2312Y2D01*
X2311Y2D01*
X2310Y2D01*
X2309Y2D01*
X2308Y2D01*
X2307Y2D01*
X2306Y2D01*
X2305Y2D01*
X2304Y2D01*
X2303Y2D01*
X2302Y2D01*
X2301Y2D01*
X2300Y2D01*
X2299Y2D01*
X2298Y2D01*
X2297Y2D01*
X2296Y2D01*
X2295Y2D01*
X2294Y2D01*
X2293Y2D01*
X2292Y2D01*
X2291Y2D01*
X2290Y2D01*
X2289Y2D01*
X2288Y2D01*
X2287Y2D01*
X2286Y2D01*
X2285Y2D01*
X2284Y2D01*
X2283Y2D01*
X2282Y2D01*
X2281Y2D01*
X2280Y2D01*
X2279Y2D01*
X2278Y2D01*
X2277Y2D01*
X2276Y2D01*
X2275Y2D01*
X2274Y2D01*
X2273Y2D01*
X2272Y2D01*
X2271Y2D01*
X2270Y2D01*
X2269Y2D01*
X2268Y2D01*
X2267Y2D01*
X2266Y2D01*
X2265Y2D01*
X2264Y2D01*
X2263Y2D01*
X2262Y2D01*
X2261Y2D01*
X2260Y2D01*
X2259Y2D01*
X2258Y2D01*
X2257Y2D01*
X2256Y2D01*
X2255Y2D01*
X2254Y2D01*
X2253Y2D01*
X2252Y2D01*
X2251Y2D01*
X2250Y2D01*
X2249Y2D01*
X2248Y2D01*
X2247Y2D01*
X2246Y2D01*
X2245Y2D01*
X2244Y2D01*
X2243Y2D01*
X2242Y2D01*
X2241Y2D01*
X2240Y2D01*
X2239Y2D01*
X2238Y2D01*
X2237Y2D01*
X2236Y2D01*
X2235Y2D01*
X2234Y2D01*
X2233Y2D01*
X2232Y2D01*
X2231Y2D01*
X2230Y2D01*
X2229Y2D01*
X2228Y2D01*
X2227Y2D01*
X2226Y2D01*
X2225Y2D01*
X2224Y2D01*
X2223Y2D01*
X2222Y2D01*
X2221Y2D01*
X2220Y2D01*
X2219Y2D01*
X2218Y2D01*
X2217Y2D01*
X2216Y2D01*
X2215Y2D01*
X2214Y2D01*
X2213Y2D01*
X2212Y2D01*
X2211Y2D01*
X2210Y2D01*
X2209Y2D01*
X2208Y2D01*
X2207Y2D01*
X2206Y2D01*
X2205Y2D01*
X2204Y2D01*
X2203Y2D01*
X2202Y2D01*
X2201Y2D01*
X2200Y2D01*
X2199Y2D01*
X2198Y2D01*
X2197Y2D01*
X2196Y2D01*
X2195Y2D01*
X2194Y2D01*
X2193Y2D01*
X2192Y2D01*
X2191Y2D01*
X2190Y2D01*
X2189Y2D01*
X2188Y2D01*
X2187Y2D01*
X2186Y2D01*
X2185Y2D01*
X2184Y2D01*
X2183Y2D01*
X2182Y2D01*
X2181Y2D01*
X2180Y2D01*
X2179Y2D01*
X2178Y2D01*
X2177Y2D01*
X2176Y2D01*
X2175Y2D01*
X2174Y2D01*
X2173Y2D01*
X2172Y2D01*
X2171Y2D01*
X2170Y2D01*
X2169Y2D01*
X2168Y2D01*
X2167Y2D01*
X2166Y2D01*
X2165Y2D01*
X2164Y2D01*
X2163Y2D01*
X2162Y2D01*
X2161Y2D01*
X2160Y2D01*
X2159Y2D01*
X2158Y2D01*
X2157Y2D01*
X2156Y2D01*
X2155Y2D01*
X2154Y2D01*
X2153Y2D01*
X2152Y2D01*
X2151Y2D01*
X2150Y2D01*
X2149Y2D01*
X2148Y2D01*
X2147Y2D01*
X2146Y2D01*
X2145Y2D01*
X2144Y2D01*
X2143Y2D01*
X2142Y2D01*
X2141Y2D01*
X2140Y2D01*
X2139Y2D01*
X2138Y2D01*
X2137Y2D01*
X2136Y2D01*
X2135Y2D01*
X2134Y2D01*
X2133Y2D01*
X2132Y2D01*
X2131Y2D01*
X2130Y2D01*
X2129Y2D01*
X2128Y2D01*
X2127Y2D01*
X2126Y2D01*
X2125Y2D01*
X2124Y2D01*
X2123Y2D01*
X2122Y2D01*
X2121Y2D01*
X2120Y2D01*
X2119Y2D01*
X2118Y2D01*
X2117Y2D01*
X2116Y2D01*
X2115Y2D01*
X2114Y2D01*
X2113Y2D01*
X2112Y2D01*
X2111Y2D01*
X2110Y2D01*
X2109Y2D01*
X2108Y2D01*
X2107Y2D01*
X2106Y2D01*
X2105Y2D01*
X2104Y2D01*
X2103Y2D01*
X2102Y2D01*
X2101Y2D01*
X2100Y2D01*
X2099Y2D01*
X2098Y2D01*
X2097Y2D01*
X2096Y2D01*
X2095Y2D01*
X2094Y2D01*
X2093Y2D01*
X2092Y2D01*
X2091Y2D01*
X2090Y2D01*
X2089Y2D01*
X2088Y2D01*
X2087Y2D01*
X2086Y2D01*
X2085Y2D01*
X2084Y2D01*
X2083Y2D01*
X2082Y2D01*
X2081Y2D01*
X2080Y2D01*
X2079Y2D01*
X2078Y2D01*
X2077Y2D01*
X2076Y2D01*
X2075Y2D01*
X2074Y2D01*
X2073Y2D01*
X2072Y2D01*
X2071Y2D01*
X2070Y2D01*
X2069Y2D01*
X2068Y2D01*
X2067Y2D01*
X2066Y2D01*
X2065Y2D01*
X2064Y2D01*
X2063Y2D01*
X2062Y2D01*
X2061Y2D01*
X2060Y2D01*
X2059Y2D01*
X2058Y2D01*
X2057Y2D01*
X2056Y2D01*
X2055Y2D01*
X2054Y2D01*
X2053Y2D01*
X2052Y2D01*
X2051Y2D01*
X2050Y2D01*
X2049Y2D01*
X2048Y2D01*
X2047Y2D01*
X2046Y2D01*
X2045Y2D01*
X2044Y2D01*
X2043Y2D01*
X2042Y2D01*
X2041Y2D01*
X2040Y2D01*
X2039Y2D01*
X2038Y2D01*
X2037Y2D01*
X2036Y2D01*
X2035Y2D01*
X2034Y2D01*
X2033Y2D01*
X2032Y2D01*
X2031Y2D01*
X2030Y2D01*
X2029Y2D01*
X2028Y2D01*
X2027Y2D01*
X2026Y2D01*
X2025Y2D01*
X2024Y2D01*
X2023Y2D01*
X2022Y2D01*
X2021Y2D01*
X2020Y2D01*
X2019Y2D01*
X2018Y2D01*
X2017Y2D01*
X2016Y2D01*
X2015Y2D01*
X2014Y2D01*
X2013Y2D01*
X2012Y2D01*
X2011Y2D01*
X2010Y2D01*
X2009Y2D01*
X2008Y2D01*
X2007Y2D01*
X2006Y2D01*
X2005Y2D01*
X2004Y2D01*
X2003Y2D01*
X2002Y2D01*
X2001Y2D01*
X2000Y2D01*
X1999Y2D01*
X1998Y2D01*
X1997Y2D01*
X1996Y2D01*
X1995Y2D01*
X1994Y2D01*
X1993Y2D01*
X1992Y2D01*
X1991Y2D01*
X1990Y2D01*
X1989Y2D01*
X1988Y2D01*
X1987Y2D01*
X1986Y2D01*
X1985Y2D01*
X1984Y2D01*
X1983Y2D01*
X1982Y2D01*
X1981Y2D01*
X1980Y2D01*
X1979Y2D01*
X1978Y2D01*
X1977Y2D01*
X1976Y2D01*
X1975Y2D01*
X1974Y2D01*
X1973Y2D01*
X1972Y2D01*
X1971Y2D01*
X1970Y2D01*
X1969Y2D01*
X1968Y2D01*
X1967Y2D01*
X1966Y2D01*
X1965Y2D01*
X1964Y2D01*
X1963Y2D01*
X1962Y2D01*
X1961Y2D01*
X1960Y2D01*
X1959Y2D01*
X1958Y2D01*
X1957Y2D01*
X1956Y2D01*
X1955Y2D01*
X1954Y2D01*
X1953Y2D01*
X1952Y2D01*
X1951Y2D01*
X1950Y2D01*
X1949Y2D01*
X1948Y2D01*
X1947Y2D01*
X1946Y2D01*
X1945Y2D01*
X1944Y2D01*
X1943Y2D01*
X1942Y2D01*
X1941Y2D01*
X1940Y2D01*
X1939Y2D01*
X1938Y2D01*
X1937Y2D01*
X1936Y2D01*
X1935Y2D01*
X1934Y2D01*
X1933Y2D01*
X1932Y2D01*
X1931Y2D01*
X1930Y2D01*
X1929Y2D01*
X1928Y2D01*
X1927Y2D01*
X1926Y2D01*
X1925Y2D01*
X1924Y2D01*
X1923Y2D01*
X1922Y2D01*
X1921Y2D01*
X1920Y2D01*
X1919Y2D01*
X1918Y2D01*
X1917Y2D01*
X1916Y2D01*
X1915Y2D01*
X1914Y2D01*
X1913Y2D01*
X1912Y2D01*
X1911Y2D01*
X1910Y2D01*
X1909Y2D01*
X1908Y2D01*
X1907Y2D01*
X1906Y2D01*
X1905Y2D01*
X1904Y2D01*
X1903Y2D01*
X1902Y2D01*
X1901Y2D01*
X1900Y2D01*
X1899Y2D01*
X1898Y2D01*
X1897Y2D01*
X1896Y2D01*
X1895Y2D01*
X1894Y2D01*
X1893Y2D01*
X1892Y2D01*
X1891Y2D01*
X1890Y2D01*
X1889Y2D01*
X1888Y2D01*
X1887Y2D01*
X1886Y2D01*
X1885Y2D01*
X1884Y2D01*
X1883Y2D01*
X1882Y2D01*
X1881Y2D01*
X1880Y2D01*
X1879Y2D01*
X1878Y2D01*
X1877Y2D01*
X1876Y2D01*
X1875Y2D01*
X1874Y2D01*
X1873Y2D01*
X1872Y2D01*
X1871Y2D01*
X1870Y2D01*
X1869Y2D01*
X1868Y2D01*
X1867Y2D01*
X1866Y2D01*
X1865Y2D01*
X1864Y2D01*
X1863Y2D01*
X1862Y2D01*
X1861Y2D01*
X1860Y2D01*
X1859Y2D01*
X1858Y2D01*
X1857Y2D01*
X1856Y2D01*
X1855Y2D01*
X1854Y2D01*
X1853Y2D01*
X1852Y2D01*
X1851Y2D01*
X1850Y2D01*
X1849Y2D01*
X1848Y2D01*
X1847Y2D01*
X1846Y2D01*
X1845Y2D01*
X1844Y2D01*
X1843Y2D01*
X1842Y2D01*
X1841Y2D01*
X1840Y2D01*
X1839Y2D01*
X1838Y2D01*
X1837Y2D01*
X1836Y2D01*
X1835Y2D01*
X1834Y2D01*
X1833Y2D01*
X1832Y2D01*
X1831Y2D01*
X1830Y2D01*
X1829Y2D01*
X1828Y2D01*
X1827Y2D01*
X1826Y2D01*
X1825Y2D01*
X1824Y2D01*
X1823Y2D01*
X1822Y2D01*
X1821Y2D01*
X1820Y2D01*
X1819Y2D01*
X1818Y2D01*
X1817Y2D01*
X1816Y2D01*
X1815Y2D01*
X1814Y2D01*
X1813Y2D01*
X1812Y2D01*
X1811Y2D01*
X1810Y2D01*
X1809Y2D01*
X1808Y2D01*
X1807Y2D01*
X1806Y2D01*
X1805Y2D01*
X1804Y2D01*
X1803Y2D01*
X1802Y2D01*
X1801Y2D01*
X1800Y2D01*
X1799Y2D01*
X1798Y2D01*
X1797Y2D01*
X1796Y2D01*
X1795Y2D01*
X1794Y2D01*
X1793Y2D01*
X1792Y2D01*
X1791Y2D01*
X1790Y2D01*
X1789Y2D01*
X1788Y2D01*
X1787Y2D01*
X1786Y2D01*
X1785Y2D01*
X1784Y2D01*
X1783Y2D01*
X1782Y2D01*
X1781Y2D01*
X1780Y2D01*
X1779Y2D01*
X1778Y2D01*
X1777Y2D01*
X1776Y2D01*
X1775Y2D01*
X1774Y2D01*
X1773Y2D01*
X1772Y2D01*
X1771Y2D01*
X1770Y2D01*
X1769Y2D01*
X1768Y2D01*
X1767Y2D01*
X1766Y2D01*
X1765Y2D01*
X1764Y2D01*
X1763Y2D01*
X1762Y2D01*
X1761Y2D01*
X1760Y2D01*
X1759Y2D01*
X1758Y2D01*
X1757Y2D01*
X1756Y2D01*
X1755Y2D01*
X1754Y2D01*
X1753Y2D01*
X1752Y2D01*
X1751Y2D01*
X1750Y2D01*
X1749Y2D01*
X1748Y2D01*
X1747Y2D01*
X1746Y2D01*
X1745Y2D01*
X1744Y2D01*
X1743Y2D01*
X1742Y2D01*
X1741Y2D01*
X1740Y2D01*
X1739Y2D01*
X1738Y2D01*
X1737Y2D01*
X1736Y2D01*
X1735Y2D01*
X1734Y2D01*
X1733Y2D01*
X1732Y2D01*
X1731Y2D01*
X1730Y2D01*
X1729Y2D01*
X1728Y2D01*
X1727Y2D01*
X1726Y2D01*
X1725Y2D01*
X1724Y2D01*
X1723Y2D01*
X1722Y2D01*
X1721Y2D01*
X1720Y2D01*
X1719Y2D01*
X1718Y2D01*
X1717Y2D01*
X1716Y2D01*
X1715Y2D01*
X1714Y2D01*
X1713Y2D01*
X1712Y2D01*
X1711Y2D01*
X1710Y2D01*
X1709Y2D01*
X1708Y2D01*
X1707Y2D01*
X1706Y2D01*
X1705Y2D01*
X1704Y2D01*
X1703Y2D01*
X1702Y2D01*
X1701Y2D01*
X1700Y2D01*
X1699Y2D01*
X1698Y2D01*
X1697Y2D01*
X1696Y2D01*
X1695Y2D01*
X1694Y2D01*
X1693Y2D01*
X1692Y2D01*
X1691Y2D01*
X1690Y2D01*
X1689Y2D01*
X1688Y2D01*
X1687Y2D01*
X1686Y2D01*
X1685Y2D01*
X1684Y2D01*
X1683Y2D01*
X1682Y2D01*
X1681Y2D01*
X1680Y2D01*
X1679Y2D01*
X1678Y2D01*
X1677Y2D01*
X1676Y2D01*
X1675Y2D01*
X1674Y2D01*
X1673Y2D01*
X1672Y2D01*
X1671Y2D01*
X1670Y2D01*
X1669Y2D01*
X1668Y2D01*
X1667Y2D01*
X1666Y2D01*
X1665Y2D01*
X1664Y2D01*
X1663Y2D01*
X1662Y2D01*
X1661Y2D01*
X1660Y2D01*
X1659Y2D01*
X1658Y2D01*
X1657Y2D01*
X1656Y2D01*
X1655Y2D01*
X1654Y2D01*
X1653Y2D01*
X1652Y2D01*
X1651Y2D01*
X1650Y2D01*
X1649Y2D01*
X1648Y2D01*
X1647Y2D01*
X1646Y2D01*
X1645Y2D01*
X1644Y2D01*
X1643Y2D01*
X1642Y2D01*
X1641Y2D01*
X1640Y2D01*
X1639Y2D01*
X1638Y2D01*
X1637Y2D01*
X1636Y2D01*
X1635Y2D01*
X1634Y2D01*
X1633Y2D01*
X1632Y2D01*
X1631Y2D01*
X1630Y2D01*
X1629Y2D01*
X1628Y2D01*
X1627Y2D01*
X1626Y2D01*
X1625Y2D01*
X1624Y2D01*
X1623Y2D01*
X1622Y2D01*
X1621Y2D01*
X1620Y2D01*
X1619Y2D01*
X1618Y2D01*
X1617Y2D01*
X1616Y2D01*
X1615Y2D01*
X1614Y2D01*
X1613Y2D01*
X1612Y2D01*
X1611Y2D01*
X1610Y2D01*
X1609Y2D01*
X1608Y2D01*
X1607Y2D01*
X1606Y2D01*
X1605Y2D01*
X1604Y2D01*
X1603Y2D01*
X1602Y2D01*
X1601Y2D01*
X1600Y2D01*
X1599Y2D01*
X1598Y2D01*
X1597Y2D01*
X1596Y2D01*
X1595Y2D01*
X1594Y2D01*
X1593Y2D01*
X1592Y2D01*
X1591Y2D01*
X1590Y2D01*
X1589Y2D01*
X1588Y2D01*
X1587Y2D01*
X1586Y2D01*
X1585Y2D01*
X1584Y2D01*
X1583Y2D01*
X1582Y2D01*
X1581Y2D01*
X1580Y2D01*
X1579Y2D01*
X1578Y2D01*
X1577Y2D01*
X1576Y2D01*
X1575Y2D01*
X1574Y2D01*
X1573Y2D01*
X1572Y2D01*
X1571Y2D01*
X1570Y2D01*
X1569Y2D01*
X1568Y2D01*
X1567Y2D01*
X1566Y2D01*
X1565Y2D01*
X1564Y2D01*
X1563Y2D01*
X1562Y2D01*
X1561Y2D01*
X1560Y2D01*
X1559Y2D01*
X1558Y2D01*
X1557Y2D01*
X1556Y2D01*
X1555Y2D01*
X1554Y2D01*
X1553Y2D01*
X1552Y2D01*
X1551Y2D01*
X1550Y2D01*
X1549Y2D01*
X1548Y2D01*
X1547Y2D01*
X1546Y2D01*
X1545Y2D01*
X1544Y2D01*
X1543Y2D01*
X1542Y2D01*
X1541Y2D01*
X1540Y2D01*
X1539Y2D01*
X1538Y2D01*
X1537Y2D01*
X1536Y2D01*
X1535Y2D01*
X1534Y2D01*
X1533Y2D01*
X1532Y2D01*
X1531Y2D01*
X1530Y2D01*
X1529Y2D01*
X1528Y2D01*
X1527Y2D01*
X1526Y2D01*
X1525Y2D01*
X1524Y2D01*
X1523Y2D01*
X1522Y2D01*
X1521Y2D01*
X1520Y2D01*
X1519Y2D01*
X1518Y2D01*
X1517Y2D01*
X1516Y2D01*
X1515Y2D01*
X1514Y2D01*
X1513Y2D01*
X1512Y2D01*
X1511Y2D01*
X1510Y2D01*
X1509Y2D01*
X1508Y2D01*
X1507Y2D01*
X1506Y2D01*
X1505Y2D01*
X1504Y2D01*
X1503Y2D01*
X1502Y2D01*
X1501Y2D01*
X1500Y2D01*
X1499Y2D01*
X1498Y2D01*
X1497Y2D01*
X1496Y2D01*
X1495Y2D01*
X1494Y2D01*
X1493Y2D01*
X1492Y2D01*
X1491Y2D01*
X1490Y2D01*
X1489Y2D01*
X1488Y2D01*
X1487Y2D01*
X1486Y2D01*
X1485Y2D01*
X1484Y2D01*
X1483Y2D01*
X1482Y2D01*
X1481Y2D01*
X1480Y2D01*
X1479Y2D01*
X1478Y2D01*
X1477Y2D01*
X1476Y2D01*
X1475Y2D01*
X1474Y2D01*
X1473Y2D01*
X1472Y2D01*
X1471Y2D01*
X1470Y2D01*
X1469Y2D01*
X1468Y2D01*
X1467Y2D01*
X1466Y2D01*
X1465Y2D01*
X1464Y2D01*
X1463Y2D01*
X1462Y2D01*
X1461Y2D01*
X1460Y2D01*
X1459Y2D01*
X1458Y2D01*
X1457Y2D01*
X1456Y2D01*
X1455Y2D01*
X1454Y2D01*
X1453Y2D01*
X1452Y2D01*
X1451Y2D01*
X1450Y2D01*
X1449Y2D01*
X1448Y2D01*
X1447Y2D01*
X1446Y2D01*
X1445Y2D01*
X1444Y2D01*
X1443Y2D01*
X1442Y2D01*
X1441Y2D01*
X1440Y2D01*
X1439Y2D01*
X1438Y2D01*
X1437Y2D01*
X1436Y2D01*
X1435Y2D01*
X1434Y2D01*
X1433Y2D01*
X1432Y2D01*
X1431Y2D01*
X1430Y2D01*
X1429Y2D01*
X1428Y2D01*
X1427Y2D01*
X1426Y2D01*
X1425Y2D01*
X1424Y2D01*
X1423Y2D01*
X1422Y2D01*
X1421Y2D01*
X1420Y2D01*
X1419Y2D01*
X1418Y2D01*
X1417Y2D01*
X1416Y2D01*
X1415Y2D01*
X1414Y2D01*
X1413Y2D01*
X1412Y2D01*
X1411Y2D01*
X1410Y2D01*
X1409Y2D01*
X1408Y2D01*
X1407Y2D01*
X1406Y2D01*
X1405Y2D01*
X1404Y2D01*
X1403Y2D01*
X1402Y2D01*
X1401Y2D01*
X1400Y2D01*
X1399Y2D01*
X1398Y2D01*
X1397Y2D01*
X1396Y2D01*
X1395Y2D01*
X1394Y2D01*
X1393Y2D01*
X1392Y2D01*
X1391Y2D01*
X1390Y2D01*
X1389Y2D01*
X1388Y2D01*
X1387Y2D01*
X1386Y2D01*
X1385Y2D01*
X1384Y2D01*
X1383Y2D01*
X1382Y2D01*
X1381Y2D01*
X1380Y2D01*
X1379Y2D01*
X1378Y2D01*
X1377Y2D01*
X1376Y2D01*
X1375Y2D01*
X1374Y2D01*
X1373Y2D01*
X1372Y2D01*
X1371Y2D01*
X1370Y2D01*
X1369Y2D01*
X1368Y2D01*
X1367Y2D01*
X1366Y2D01*
X1365Y2D01*
X1364Y2D01*
X1363Y2D01*
X1362Y2D01*
X1361Y2D01*
X1360Y2D01*
X1359Y2D01*
X1358Y2D01*
X1357Y2D01*
X1356Y2D01*
X1355Y2D01*
X1354Y2D01*
X1353Y2D01*
X1352Y2D01*
X1351Y2D01*
X1350Y2D01*
X1349Y2D01*
X1348Y2D01*
X1347Y2D01*
X1346Y2D01*
X1345Y2D01*
X1344Y2D01*
X1343Y2D01*
X1342Y2D01*
X1341Y2D01*
X1340Y2D01*
X1339Y2D01*
X1338Y2D01*
X1337Y2D01*
X1336Y2D01*
X1335Y2D01*
X1334Y2D01*
X1333Y2D01*
X1332Y2D01*
X1331Y2D01*
X1330Y2D01*
X1329Y2D01*
X1328Y2D01*
X1327Y2D01*
X1326Y2D01*
X1325Y2D01*
X1324Y2D01*
X1323Y2D01*
X1322Y2D01*
X1321Y2D01*
X1320Y2D01*
X1319Y2D01*
X1318Y2D01*
X1317Y2D01*
X1316Y2D01*
X1315Y2D01*
X1314Y2D01*
X1313Y2D01*
X1312Y2D01*
X1311Y2D01*
X1310Y2D01*
X1309Y2D01*
X1308Y2D01*
X1307Y2D01*
X1306Y2D01*
X1305Y2D01*
X1304Y2D01*
X1303Y2D01*
X1302Y2D01*
X1301Y2D01*
X1300Y2D01*
X1299Y2D01*
X1298Y2D01*
X1297Y2D01*
X1296Y2D01*
X1295Y2D01*
X1294Y2D01*
X1293Y2D01*
X1292Y2D01*
X1291Y2D01*
X1290Y2D01*
X1289Y2D01*
X1288Y2D01*
X1287Y2D01*
X1286Y2D01*
X1285Y2D01*
X1284Y2D01*
X1283Y2D01*
X1282Y2D01*
X1281Y2D01*
X1280Y2D01*
X1279Y2D01*
X1278Y2D01*
X1277Y2D01*
X1276Y2D01*
X1275Y2D01*
X1274Y2D01*
X1273Y2D01*
X1272Y2D01*
X1271Y2D01*
X1270Y2D01*
X1269Y2D01*
X1268Y2D01*
X1267Y2D01*
X1266Y2D01*
X1265Y2D01*
X1264Y2D01*
X1263Y2D01*
X1262Y2D01*
X1261Y2D01*
X1260Y2D01*
X1259Y2D01*
X1258Y2D01*
X1257Y2D01*
X1256Y2D01*
X1255Y2D01*
X1254Y2D01*
X1253Y2D01*
X1252Y2D01*
X1251Y2D01*
X1250Y2D01*
X1249Y2D01*
X1248Y2D01*
X1247Y2D01*
X1246Y2D01*
X1245Y2D01*
X1244Y2D01*
X1243Y2D01*
X1242Y2D01*
X1241Y2D01*
X1240Y2D01*
X1239Y2D01*
X1238Y2D01*
X1237Y2D01*
X1236Y2D01*
X1235Y2D01*
X1234Y2D01*
X1233Y2D01*
X1232Y2D01*
X1231Y2D01*
X1230Y2D01*
X1229Y2D01*
X1228Y2D01*
X1227Y2D01*
X1226Y2D01*
X1225Y2D01*
X1224Y2D01*
X1223Y2D01*
X1222Y2D01*
X1221Y2D01*
X1220Y2D01*
X1219Y2D01*
X1218Y2D01*
X1217Y2D01*
X1216Y2D01*
X1215Y2D01*
X1214Y2D01*
X1213Y2D01*
X1212Y2D01*
X1211Y2D01*
X1210Y2D01*
X1209Y2D01*
X1208Y2D01*
X1207Y2D01*
X1206Y2D01*
X1205Y2D01*
X1204Y2D01*
X1203Y2D01*
X1202Y2D01*
X1201Y2D01*
X1200Y2D01*
X1199Y2D01*
X1198Y2D01*
X1197Y2D01*
X1196Y2D01*
X1195Y2D01*
X1194Y2D01*
X1193Y2D01*
X1192Y2D01*
X1191Y2D01*
X1190Y2D01*
X1189Y2D01*
X1188Y2D01*
X1187Y2D01*
X1186Y2D01*
X1185Y2D01*
X1184Y2D01*
X1183Y2D01*
X1182Y2D01*
X1181Y2D01*
X1180Y2D01*
X1179Y2D01*
X1178Y2D01*
X1177Y2D01*
X1176Y2D01*
X1175Y2D01*
X1174Y2D01*
X1173Y2D01*
X1172Y2D01*
X1171Y2D01*
X1170Y2D01*
X1169Y2D01*
X1168Y2D01*
X1167Y2D01*
X1166Y2D01*
X1165Y2D01*
X1164Y2D01*
X1163Y2D01*
X1162Y2D01*
X1161Y2D01*
X1160Y2D01*
X1159Y2D01*
X1158Y2D01*
X1157Y2D01*
X1156Y2D01*
X1155Y2D01*
X1154Y2D01*
X1153Y2D01*
X1152Y2D01*
X1151Y2D01*
X1150Y2D01*
X1149Y2D01*
X1148Y2D01*
X1147Y2D01*
X1146Y2D01*
X1145Y2D01*
X1144Y2D01*
X1143Y2D01*
X1142Y2D01*
X1141Y2D01*
X1140Y2D01*
X1139Y2D01*
X1138Y2D01*
X1137Y2D01*
X1136Y2D01*
X1135Y2D01*
X1134Y2D01*
X1133Y2D01*
X1132Y2D01*
X1131Y2D01*
X1130Y2D01*
X1129Y2D01*
X1128Y2D01*
X1127Y2D01*
X1126Y2D01*
X1125Y2D01*
X1124Y2D01*
X1123Y2D01*
X1122Y2D01*
X1121Y2D01*
X1120Y2D01*
X1119Y2D01*
X1118Y2D01*
X1117Y2D01*
X1116Y2D01*
X1115Y2D01*
X1114Y2D01*
X1113Y2D01*
X1112Y2D01*
X1111Y2D01*
X1110Y2D01*
X1109Y2D01*
X1108Y2D01*
X1107Y2D01*
X1106Y2D01*
X1105Y2D01*
X1104Y2D01*
X1103Y2D01*
X1102Y2D01*
X1101Y2D01*
X1100Y2D01*
X1099Y2D01*
X1098Y2D01*
X1097Y2D01*
X1096Y2D01*
X1095Y2D01*
X1094Y2D01*
X1093Y2D01*
X1092Y2D01*
X1091Y2D01*
X1090Y2D01*
X1089Y2D01*
X1088Y2D01*
X1087Y2D01*
X1086Y2D01*
X1085Y2D01*
X1084Y2D01*
X1083Y2D01*
X1082Y2D01*
X1081Y2D01*
X1080Y2D01*
X1079Y2D01*
X1078Y2D01*
X1077Y2D01*
X1076Y2D01*
X1075Y2D01*
X1074Y2D01*
X1073Y2D01*
X1072Y2D01*
X1071Y2D01*
X1070Y2D01*
X1069Y2D01*
X1068Y2D01*
X1067Y2D01*
X1066Y2D01*
X1065Y2D01*
X1064Y2D01*
X1063Y2D01*
X1062Y2D01*
X1061Y2D01*
X1060Y2D01*
X1059Y2D01*
X1058Y2D01*
X1057Y2D01*
X1056Y2D01*
X1055Y2D01*
X1054Y2D01*
X1053Y2D01*
X1052Y2D01*
X1051Y2D01*
X1050Y2D01*
X1049Y2D01*
X1048Y2D01*
X1047Y2D01*
X1046Y2D01*
X1045Y2D01*
X1044Y2D01*
X1043Y2D01*
X1042Y2D01*
X1041Y2D01*
X1040Y2D01*
X1039Y2D01*
X1038Y2D01*
X1037Y2D01*
X1036Y2D01*
X1035Y2D01*
X1034Y2D01*
X1033Y2D01*
X1032Y2D01*
X1031Y2D01*
X1030Y2D01*
X1029Y2D01*
X1028Y2D01*
X1027Y2D01*
X1026Y2D01*
X1025Y2D01*
X1024Y2D01*
X1023Y2D01*
X1022Y2D01*
X1021Y2D01*
X1020Y2D01*
X1019Y2D01*
X1018Y2D01*
X1017Y2D01*
X1016Y2D01*
X1015Y2D01*
X1014Y2D01*
X1013Y2D01*
X1012Y2D01*
X1011Y2D01*
X1010Y2D01*
X1009Y2D01*
X1008Y2D01*
X1007Y2D01*
X1006Y2D01*
X1005Y2D01*
X1004Y2D01*
X1003Y2D01*
X1002Y2D01*
X1001Y2D01*
X1000Y2D01*
X999Y2D01*
X998Y2D01*
X997Y2D01*
X996Y2D01*
X995Y2D01*
X994Y2D01*
X993Y2D01*
X992Y2D01*
X991Y2D01*
X990Y2D01*
X989Y2D01*
X988Y2D01*
X987Y2D01*
X986Y2D01*
X985Y2D01*
X984Y2D01*
X983Y2D01*
X982Y2D01*
X981Y2D01*
X980Y2D01*
X979Y2D01*
X978Y2D01*
X977Y2D01*
X976Y2D01*
X975Y2D01*
X974Y2D01*
X973Y2D01*
X972Y2D01*
X971Y2D01*
X970Y2D01*
X969Y2D01*
X968Y2D01*
X967Y2D01*
X966Y2D01*
X965Y2D01*
X964Y2D01*
X963Y2D01*
X962Y2D01*
X961Y2D01*
X960Y2D01*
X959Y2D01*
X958Y2D01*
X957Y2D01*
X956Y2D01*
X955Y2D01*
X954Y2D01*
X953Y2D01*
X952Y2D01*
X951Y2D01*
X950Y2D01*
X949Y2D01*
X948Y2D01*
X947Y2D01*
X946Y2D01*
X945Y2D01*
X944Y2D01*
X943Y2D01*
X942Y2D01*
X941Y2D01*
X940Y2D01*
X939Y2D01*
X938Y2D01*
X937Y2D01*
X936Y2D01*
X935Y2D01*
X934Y2D01*
X933Y2D01*
X932Y2D01*
X931Y2D01*
X930Y2D01*
X929Y2D01*
X928Y2D01*
X927Y2D01*
X926Y2D01*
X925Y2D01*
X924Y2D01*
X923Y2D01*
X922Y2D01*
X921Y2D01*
X920Y2D01*
X919Y2D01*
X918Y2D01*
X917Y2D01*
X916Y2D01*
X915Y2D01*
X914Y2D01*
X913Y2D01*
X912Y2D01*
X911Y2D01*
X910Y2D01*
X909Y2D01*
X908Y2D01*
X907Y2D01*
X906Y2D01*
X905Y2D01*
X904Y2D01*
X903Y2D01*
X902Y2D01*
X901Y2D01*
X900Y2D01*
X899Y2D01*
X898Y2D01*
X897Y2D01*
X896Y2D01*
X895Y2D01*
X894Y2D01*
X893Y2D01*
X892Y2D01*
X891Y2D01*
X890Y2D01*
X889Y2D01*
X888Y2D01*
X887Y2D01*
X886Y2D01*
X885Y2D01*
X884Y2D01*
X883Y2D01*
X882Y2D01*
X881Y2D01*
X880Y2D01*
X879Y2D01*
X878Y2D01*
X877Y2D01*
X876Y2D01*
X875Y2D01*
X874Y2D01*
X873Y2D01*
X872Y2D01*
X871Y2D01*
X870Y2D01*
X869Y2D01*
X868Y2D01*
X867Y2D01*
X866Y2D01*
X865Y2D01*
X864Y2D01*
X863Y2D01*
X862Y2D01*
X861Y2D01*
X860Y2D01*
X859Y2D01*
X858Y2D01*
X857Y2D01*
X856Y2D01*
X855Y2D01*
X854Y2D01*
X853Y2D01*
X852Y2D01*
X851Y2D01*
X850Y2D01*
X849Y2D01*
X848Y2D01*
X847Y2D01*
X846Y2D01*
X845Y2D01*
X844Y2D01*
X843Y2D01*
X842Y2D01*
X841Y2D01*
X840Y2D01*
X839Y2D01*
X838Y2D01*
X837Y2D01*
X836Y2D01*
X835Y2D01*
X834Y2D01*
X833Y2D01*
X832Y2D01*
X831Y2D01*
X830Y2D01*
X829Y2D01*
X828Y2D01*
X827Y2D01*
X826Y2D01*
X825Y2D01*
X824Y2D01*
X823Y2D01*
X822Y2D01*
X821Y2D01*
X820Y2D01*
X819Y2D01*
X818Y2D01*
X817Y2D01*
X816Y2D01*
X815Y2D01*
X814Y2D01*
X813Y2D01*
X812Y2D01*
X811Y2D01*
X810Y2D01*
X809Y2D01*
X808Y2D01*
X807Y2D01*
X806Y2D01*
X805Y2D01*
X804Y2D01*
X803Y2D01*
X802Y2D01*
X801Y2D01*
X800Y2D01*
X799Y2D01*
X798Y2D01*
X797Y2D01*
X796Y2D01*
X795Y2D01*
X794Y2D01*
X793Y2D01*
X792Y2D01*
X791Y2D01*
X790Y2D01*
X789Y2D01*
X788Y2D01*
X787Y2D01*
X786Y2D01*
X785Y2D01*
X784Y2D01*
X783Y2D01*
X782Y2D01*
X781Y2D01*
X780Y2D01*
X779Y2D01*
X778Y2D01*
X777Y2D01*
X776Y2D01*
X775Y2D01*
X774Y2D01*
X773Y2D01*
X772Y2D01*
X771Y2D01*
X770Y2D01*
X769Y2D01*
X768Y2D01*
X767Y2D01*
X766Y2D01*
X765Y2D01*
X764Y2D01*
X763Y2D01*
X762Y2D01*
X761Y2D01*
X760Y2D01*
X759Y2D01*
X758Y2D01*
X757Y2D01*
X756Y2D01*
X755Y2D01*
X754Y2D01*
X753Y2D01*
X752Y2D01*
X751Y2D01*
X750Y2D01*
X749Y2D01*
X748Y2D01*
X747Y2D01*
X746Y2D01*
X745Y2D01*
X744Y2D01*
X743Y2D01*
X742Y2D01*
X741Y2D01*
X740Y2D01*
X739Y2D01*
X738Y2D01*
X737Y2D01*
X736Y2D01*
X735Y2D01*
X734Y2D01*
X733Y2D01*
X732Y2D01*
X731Y2D01*
X730Y2D01*
X729Y2D01*
X728Y2D01*
X727Y2D01*
X726Y2D01*
X725Y2D01*
X724Y2D01*
X723Y2D01*
X722Y2D01*
X721Y2D01*
X720Y2D01*
X719Y2D01*
X718Y2D01*
X717Y2D01*
X716Y2D01*
X715Y2D01*
X714Y2D01*
X713Y2D01*
X712Y2D01*
X711Y2D01*
X710Y2D01*
X709Y2D01*
X708Y2D01*
X707Y2D01*
X706Y2D01*
X705Y2D01*
X704Y2D01*
X703Y2D01*
X702Y2D01*
X701Y2D01*
X700Y2D01*
X699Y2D01*
X698Y2D01*
X697Y2D01*
X696Y2D01*
X695Y2D01*
X694Y2D01*
X693Y2D01*
X692Y2D01*
X691Y2D01*
X690Y2D01*
X689Y2D01*
X688Y2D01*
X687Y2D01*
X686Y2D01*
X685Y2D01*
X684Y2D01*
X683Y2D01*
X682Y2D01*
X681Y2D01*
X680Y2D01*
X679Y2D01*
X678Y2D01*
X677Y2D01*
X676Y2D01*
X675Y2D01*
X674Y2D01*
X673Y2D01*
X672Y2D01*
X671Y2D01*
X670Y2D01*
X669Y2D01*
X668Y2D01*
X667Y2D01*
X666Y2D01*
X665Y2D01*
X664Y2D01*
X663Y2D01*
X662Y2D01*
X661Y2D01*
X660Y2D01*
X659Y2D01*
X658Y2D01*
X657Y2D01*
X656Y2D01*
X655Y2D01*
X654Y2D01*
X653Y2D01*
X652Y2D01*
X651Y2D01*
X650Y2D01*
X649Y2D01*
X648Y2D01*
X647Y2D01*
X646Y2D01*
X645Y2D01*
X644Y2D01*
X643Y2D01*
X642Y2D01*
X641Y2D01*
X640Y2D01*
X639Y2D01*
X638Y2D01*
X637Y2D01*
X636Y2D01*
X635Y2D01*
X634Y2D01*
X633Y2D01*
X632Y2D01*
X631Y2D01*
X630Y2D01*
X629Y2D01*
X628Y2D01*
X627Y2D01*
X626Y2D01*
X625Y2D01*
X624Y2D01*
X623Y2D01*
X622Y2D01*
X621Y2D01*
X620Y2D01*
X619Y2D01*
X618Y2D01*
X617Y2D01*
X616Y2D01*
X615Y2D01*
X614Y2D01*
X613Y2D01*
X612Y2D01*
X611Y2D01*
X610Y2D01*
X609Y2D01*
X608Y2D01*
X607Y2D01*
X606Y2D01*
X605Y2D01*
X604Y2D01*
X603Y2D01*
X602Y2D01*
X601Y2D01*
X600Y2D01*
X599Y2D01*
X598Y2D01*
X597Y2D01*
X596Y2D01*
X595Y2D01*
X594Y2D01*
X593Y2D01*
X592Y2D01*
X591Y2D01*
X590Y2D01*
X589Y2D01*
X588Y2D01*
X587Y2D01*
X586Y2D01*
X585Y2D01*
X584Y2D01*
X583Y2D01*
X582Y2D01*
X581Y2D01*
X580Y2D01*
X579Y2D01*
X578Y2D01*
X577Y2D01*
X576Y2D01*
X575Y2D01*
X574Y2D01*
X573Y2D01*
X572Y2D01*
X571Y2D01*
X570Y2D01*
X569Y2D01*
X568Y2D01*
X567Y2D01*
X566Y2D01*
X565Y2D01*
X564Y2D01*
X563Y2D01*
X562Y2D01*
X561Y2D01*
X560Y2D01*
X559Y2D01*
X558Y2D01*
X557Y2D01*
X556Y2D01*
X555Y2D01*
X554Y2D01*
X553Y2D01*
X552Y2D01*
X551Y2D01*
X550Y2D01*
X549Y2D01*
X548Y2D01*
X547Y2D01*
X546Y2D01*
X545Y2D01*
X544Y2D01*
X543Y2D01*
X542Y2D01*
X541Y2D01*
X540Y2D01*
X539Y2D01*
X538Y2D01*
X537Y2D01*
X536Y2D01*
X535Y2D01*
X534Y2D01*
X533Y2D01*
X532Y2D01*
X531Y2D01*
X530Y2D01*
X529Y2D01*
X528Y2D01*
X527Y2D01*
X526Y2D01*
X525Y2D01*
X524Y2D01*
X523Y2D01*
X522Y2D01*
X521Y2D01*
X520Y2D01*
X519Y2D01*
X518Y2D01*
X517Y2D01*
X516Y2D01*
X515Y2D01*
X514Y2D01*
X513Y2D01*
X512Y2D01*
X511Y2D01*
X510Y2D01*
X509Y2D01*
X508Y2D01*
X507Y2D01*
X506Y2D01*
X505Y2D01*
X504Y2D01*
X503Y2D01*
X502Y2D01*
X501Y2D01*
X500Y2D01*
X499Y2D01*
X498Y2D01*
X497Y2D01*
X496Y2D01*
X495Y2D01*
X494Y2D01*
X493Y2D01*
X492Y2D01*
X491Y2D01*
X490Y2D01*
X489Y2D01*
X488Y2D01*
X487Y2D01*
X486Y2D01*
X485Y2D01*
X484Y2D01*
X483Y2D01*
X482Y2D01*
X481Y2D01*
X480Y2D01*
X479Y2D01*
X478Y2D01*
X477Y2D01*
X476Y2D01*
X475Y2D01*
X474Y2D01*
X473Y2D01*
X472Y2D01*
X471Y2D01*
X470Y2D01*
X469Y2D01*
X468Y2D01*
X467Y2D01*
X466Y2D01*
X465Y2D01*
X464Y2D01*
X463Y2D01*
X462Y2D01*
X461Y2D01*
X460Y2D01*
X459Y2D01*
X458Y2D01*
X457Y2D01*
X456Y2D01*
X455Y2D01*
X454Y2D01*
X453Y2D01*
X452Y2D01*
X451Y2D01*
X450Y2D01*
X449Y2D01*
X448Y2D01*
X447Y2D01*
X446Y2D01*
X445Y2D01*
X444Y2D01*
X443Y2D01*
X442Y2D01*
X441Y2D01*
X440Y2D01*
X439Y2D01*
X438Y2D01*
X437Y2D01*
X436Y2D01*
X435Y2D01*
X434Y2D01*
X433Y2D01*
X432Y2D01*
X431Y2D01*
X430Y2D01*
X429Y2D01*
X428Y2D01*
X427Y2D01*
X426Y2D01*
X425Y2D01*
X424Y2D01*
X423Y2D01*
X422Y2D01*
X421Y2D01*
X420Y2D01*
X419Y2D01*
X418Y2D01*
X417Y2D01*
X416Y2D01*
X415Y2D01*
X414Y2D01*
X413Y2D01*
X412Y2D01*
X411Y2D01*
X410Y2D01*
X409Y2D01*
X408Y2D01*
X407Y2D01*
X406Y2D01*
X405Y2D01*
X404Y2D01*
X403Y2D01*
X402Y2D01*
X401Y2D01*
X400Y2D01*
X399Y2D01*
X398Y2D01*
X397Y2D01*
X396Y2D01*
X395Y2D01*
X394Y2D01*
X393Y2D01*
X392Y2D01*
X391Y2D01*
X390Y2D01*
X389Y2D01*
X388Y2D01*
X387Y2D01*
X386Y2D01*
X385Y2D01*
X384Y2D01*
X383Y2D01*
X382Y2D01*
X381Y2D01*
X380Y2D01*
X379Y2D01*
X378Y2D01*
X377Y2D01*
X376Y2D01*
X375Y2D01*
X374Y2D01*
X373Y2D01*
X372Y3D01*
X371Y3D01*
X370Y3D01*
X369Y3D01*
X368Y3D01*
X367Y3D01*
X366Y3D01*
X365Y3D01*
X364Y3D01*
X363Y3D01*
X362Y3D01*
X361Y3D01*
X360Y3D01*
X359Y3D01*
X358Y4D01*
X357Y4D01*
X356Y4D01*
X355Y4D01*
X354Y4D01*
X353Y4D01*
X352Y4D01*
X351Y4D01*
X350Y4D01*
X349Y4D01*
X348Y5D01*
X347Y5D01*
X346Y5D01*
X345Y5D01*
X344Y5D01*
X343Y5D01*
X342Y5D01*
X341Y5D01*
X340Y6D01*
X339Y6D01*
X338Y6D01*
X337Y6D01*
X336Y6D01*
X335Y6D01*
X334Y6D01*
X333Y6D01*
X332Y7D01*
X331Y7D01*
X330Y7D01*
X329Y7D01*
X328Y7D01*
X327Y7D01*
X326Y8D01*
X325Y8D01*
X324Y8D01*
X323Y8D01*
X322Y8D01*
X321Y9D01*
X320Y9D01*
X319Y9D01*
X318Y9D01*
X317Y9D01*
X316Y9D01*
X315Y10D01*
X314Y10D01*
X313Y10D01*
X312Y10D01*
X311Y11D01*
X310Y11D01*
X309Y11D01*
X308Y11D01*
X307Y11D01*
X306Y12D01*
X305Y12D01*
X304Y12D01*
X303Y12D01*
X302Y13D01*
X301Y13D01*
X300Y13D01*
X299Y13D01*
X298Y13D01*
X297Y14D01*
X296Y14D01*
X295Y14D01*
X294Y14D01*
X293Y15D01*
X292Y15D01*
X291Y15D01*
X290Y16D01*
X289Y16D01*
X288Y16D01*
X287Y16D01*
X286Y17D01*
X285Y17D01*
X284Y17D01*
X283Y18D01*
X282Y18D01*
X281Y18D01*
X280Y18D01*
X279Y19D01*
X278Y19D01*
X277Y19D01*
X276Y20D01*
X275Y20D01*
X274Y20D01*
X273Y21D01*
X272Y21D01*
X271Y21D01*
X270Y22D01*
X269Y22D01*
X268Y22D01*
X267Y23D01*
X266Y23D01*
X265Y23D01*
X264Y24D01*
X263Y24D01*
X262Y24D01*
X261Y25D01*
X260Y25D01*
X259Y25D01*
X258Y26D01*
X257Y26D01*
X256Y26D01*
X255Y27D01*
X254Y27D01*
X253Y28D01*
X252Y28D01*
X251Y28D01*
X250Y29D01*
X249Y29D01*
X248Y30D01*
X247Y30D01*
X246Y30D01*
X245Y31D01*
X244Y31D01*
X243Y32D01*
X242Y32D01*
X241Y32D01*
X240Y33D01*
X239Y33D01*
X238Y34D01*
X237Y34D01*
X236Y34D01*
X235Y35D01*
X234Y35D01*
X233Y36D01*
X232Y36D01*
X231Y37D01*
X230Y37D01*
X229Y38D01*
X228Y38D01*
X227Y39D01*
X226Y39D01*
X225Y39D01*
X224Y40D01*
X223Y40D01*
X222Y41D01*
X221Y41D01*
X220Y42D01*
X219Y42D01*
X218Y43D01*
X217Y43D01*
X216Y44D01*
X215Y44D01*
X214Y45D01*
X213Y45D01*
X212Y46D01*
X211Y46D01*
X210Y47D01*
X209Y47D01*
X208Y48D01*
X207Y48D01*
X206Y49D01*
X205Y49D01*
X204Y50D01*
X203Y51D01*
X202Y51D01*
X201Y52D01*
X200Y52D01*
X199Y53D01*
X198Y53D01*
X197Y54D01*
X196Y55D01*
X195Y55D01*
X194Y56D01*
X193Y56D01*
X192Y57D01*
X191Y57D01*
X190Y58D01*
X189Y59D01*
X188Y59D01*
X187Y60D01*
X186Y61D01*
X185Y61D01*
X184Y62D01*
X183Y62D01*
X182Y63D01*
X181Y64D01*
X180Y64D01*
X179Y65D01*
X178Y66D01*
X177Y66D01*
X176Y67D01*
X175Y68D01*
X174Y68D01*
X173Y69D01*
X172Y69D01*
X171Y70D01*
X170Y71D01*
X169Y72D01*
X168Y72D01*
X167Y73D01*
X166Y74D01*
X165Y74D01*
X164Y75D01*
X163Y76D01*
X162Y77D01*
X161Y77D01*
X160Y78D01*
X159Y79D01*
X158Y79D01*
X157Y80D01*
X156Y81D01*
X155Y82D01*
X154Y82D01*
X153Y83D01*
X152Y84D01*
X151Y85D01*
X150Y86D01*
X149Y86D01*
X148Y87D01*
X147Y88D01*
X146Y89D01*
X145Y90D01*
X144Y90D01*
X143Y91D01*
X142Y92D01*
X141Y93D01*
X140Y94D01*
X139Y95D01*
X138Y95D01*
X137Y96D01*
X136Y97D01*
X135Y98D01*
X134Y99D01*
X133Y100D01*
X132Y101D01*
X131Y101D01*
X130Y102D01*
X129Y103D01*
X128Y104D01*
X127Y105D01*
X126Y106D01*
X125Y107D01*
X124Y108D01*
X123Y109D01*
X122Y110D01*
X121Y111D01*
X120Y112D01*
X119Y113D01*
X118Y113D01*
X117Y114D01*
X116Y115D01*
X115Y116D01*
X114Y117D01*
X113Y118D01*
X112Y119D01*
X111Y120D01*
X111Y121D01*
X110Y122D01*
X109Y123D01*
X108Y124D01*
X107Y125D01*
X106Y126D01*
X105Y127D01*
X104Y128D01*
X103Y129D01*
X102Y130D01*
X101Y131D01*
X100Y132D01*
X99Y133D01*
X98Y134D01*
X98Y135D01*
X97Y136D01*
X96Y137D01*
X95Y138D01*
X94Y139D01*
X93Y140D01*
X92Y141D01*
X92Y142D01*
X91Y143D01*
X90Y144D01*
X89Y145D01*
X88Y146D01*
X87Y147D01*
X87Y148D01*
X86Y149D01*
X85Y150D01*
X84Y151D01*
X83Y152D01*
X83Y153D01*
X82Y154D01*
X81Y155D01*
X80Y156D01*
X80Y157D01*
X79Y158D01*
X78Y159D01*
X77Y160D01*
X77Y161D01*
X76Y162D01*
X75Y163D01*
X74Y164D01*
X74Y165D01*
X73Y166D01*
X72Y167D01*
X72Y168D01*
X71Y169D01*
X70Y170D01*
X69Y171D01*
X69Y172D01*
X68Y173D01*
X67Y174D01*
X67Y175D01*
X66Y176D01*
X65Y177D01*
X65Y178D01*
X64Y179D01*
X63Y180D01*
X63Y181D01*
X62Y182D01*
X62Y183D01*
X61Y184D01*
X60Y185D01*
X60Y186D01*
X59Y187D01*
X58Y188D01*
X58Y189D01*
X57Y190D01*
X56Y191D01*
X56Y192D01*
X55Y193D01*
X55Y194D01*
X54Y195D01*
X54Y196D01*
X53Y197D01*
X52Y198D01*
X52Y199D01*
X51Y200D01*
X51Y201D01*
X50Y202D01*
X50Y203D01*
X49Y204D01*
X48Y205D01*
X48Y206D01*
X47Y207D01*
X47Y208D01*
X46Y209D01*
X46Y210D01*
X45Y211D01*
X45Y212D01*
X44Y213D01*
X44Y214D01*
X43Y215D01*
X43Y216D01*
X42Y217D01*
X42Y218D01*
X41Y219D01*
X41Y220D01*
X40Y221D01*
X40Y222D01*
X39Y223D01*
X39Y224D01*
X38Y225D01*
X38Y226D01*
X37Y227D01*
X37Y228D01*
X36Y229D01*
X36Y230D01*
X35Y231D01*
X35Y232D01*
X34Y233D01*
X34Y235D01*
X33Y236D01*
X33Y237D01*
X32Y238D01*
X32Y239D01*
X31Y240D01*
X31Y241D01*
X30Y242D01*
X30Y244D01*
X29Y245D01*
X29Y246D01*
X28Y247D01*
X28Y249D01*
X27Y250D01*
X27Y252D01*
X26Y253D01*
X26Y254D01*
X25Y255D01*
X25Y257D01*
X24Y258D01*
X24Y259D01*
X23Y260D01*
X23Y262D01*
X22Y263D01*
X22Y265D01*
X21Y266D01*
X21Y268D01*
X20Y269D01*
X20Y271D01*
X19Y272D01*
X19Y274D01*
X18Y275D01*
X18Y277D01*
X17Y278D01*
X17Y280D01*
X16Y281D01*
X16Y284D01*
X15Y285D01*
X15Y287D01*
X14Y288D01*
X14Y291D01*
X13Y292D01*
X13Y295D01*
X12Y296D01*
X12Y299D01*
X11Y300D01*
X11Y303D01*
X10Y304D01*
X10Y307D01*
X9Y308D01*
X9Y312D01*
X8Y313D01*
X8Y316D01*
X7Y317D01*
X7Y322D01*
X6Y323D01*
X6Y327D01*
X5Y328D01*
X5Y333D01*
X4Y334D01*
X4Y340D01*
X3Y341D01*
X3Y349D01*
X2Y350D01*
X2Y359D01*
X1Y360D01*
X1Y373D01*
X0Y374D01*
X0Y1528D01*
X1Y1529D01*
X1Y1542D01*
X2Y1543D01*
X2Y1552D01*
X3Y1553D01*
X3Y1561D01*
X4Y1562D01*
X4Y1568D01*
X5Y1569D01*
X5Y1574D01*
X6Y1575D01*
X6Y1579D01*
X7Y1580D01*
X7Y1585D01*
X8Y1586D01*
X8Y1589D01*
X9Y1590D01*
X9Y1594D01*
X10Y1595D01*
X10Y1598D01*
X11Y1599D01*
X11Y1602D01*
X12Y1603D01*
X12Y1606D01*
X13Y1607D01*
X13Y1610D01*
X14Y1611D01*
X14Y1614D01*
X15Y1615D01*
X15Y1617D01*
X16Y1618D01*
X16Y1621D01*
X17Y1622D01*
X17Y1624D01*
X18Y1625D01*
X18Y1627D01*
X19Y1628D01*
X19Y1630D01*
X20Y1631D01*
X20Y1633D01*
X21Y1634D01*
X21Y1636D01*
X22Y1637D01*
X22Y1639D01*
X23Y1640D01*
X23Y1642D01*
X24Y1643D01*
X24Y1644D01*
X25Y1645D01*
X25Y1647D01*
X26Y1648D01*
X26Y1649D01*
X27Y1650D01*
X27Y1652D01*
X28Y1653D01*
X28Y1655D01*
X29Y1656D01*
X29Y1657D01*
X30Y1658D01*
X30Y1660D01*
X31Y1661D01*
X31Y1662D01*
X32Y1663D01*
X32Y1664D01*
X33Y1665D01*
X33Y1666D01*
X34Y1667D01*
X34Y1669D01*
X35Y1670D01*
X35Y1671D01*
X36Y1672D01*
X36Y1673D01*
X37Y1674D01*
X37Y1675D01*
X38Y1676D01*
X38Y1677D01*
X39Y1678D01*
X39Y1679D01*
X40Y1680D01*
X40Y1681D01*
X41Y1682D01*
X41Y1683D01*
X42Y1684D01*
X42Y1685D01*
X43Y1686D01*
X43Y1687D01*
X44Y1688D01*
X44Y1689D01*
X45Y1690D01*
X45Y1691D01*
X46Y1692D01*
X46Y1693D01*
X47Y1694D01*
X47Y1695D01*
X48Y1696D01*
X48Y1697D01*
X49Y1698D01*
X50Y1699D01*
X50Y1700D01*
X51Y1701D01*
X51Y1702D01*
X52Y1703D01*
X52Y1704D01*
X53Y1705D01*
X54Y1706D01*
X54Y1707D01*
X55Y1708D01*
X55Y1709D01*
X56Y1710D01*
X56Y1711D01*
X57Y1712D01*
X58Y1713D01*
X58Y1714D01*
X59Y1715D01*
X60Y1716D01*
X60Y1717D01*
X61Y1718D01*
X62Y1719D01*
X62Y1720D01*
X63Y1721D01*
X63Y1722D01*
X64Y1723D01*
X65Y1724D01*
X65Y1725D01*
X66Y1726D01*
X67Y1727D01*
X67Y1728D01*
X68Y1729D01*
X69Y1730D01*
X69Y1731D01*
X70Y1732D01*
X71Y1733D01*
X72Y1734D01*
X72Y1735D01*
X73Y1736D01*
X74Y1737D01*
X74Y1738D01*
X75Y1739D01*
X76Y1740D01*
X77Y1741D01*
X77Y1742D01*
X78Y1743D01*
X79Y1744D01*
X80Y1745D01*
X80Y1746D01*
X81Y1747D01*
X82Y1748D01*
X83Y1749D01*
X83Y1750D01*
X84Y1751D01*
X85Y1752D01*
X86Y1753D01*
X87Y1754D01*
X87Y1755D01*
X88Y1756D01*
X89Y1757D01*
X90Y1758D01*
X91Y1759D01*
X92Y1760D01*
X92Y1761D01*
X93Y1762D01*
X94Y1763D01*
X95Y1764D01*
X96Y1765D01*
X97Y1766D01*
X98Y1767D01*
X98Y1768D01*
X99Y1769D01*
X100Y1770D01*
X101Y1771D01*
X102Y1772D01*
X103Y1773D01*
X104Y1774D01*
X105Y1775D01*
X106Y1776D01*
X107Y1777D01*
X108Y1778D01*
X109Y1779D01*
X110Y1780D01*
X111Y1781D01*
X111Y1782D01*
X112Y1783D01*
X113Y1784D01*
X114Y1785D01*
X115Y1786D01*
X116Y1787D01*
X117Y1788D01*
X118Y1789D01*
X119Y1789D01*
X120Y1790D01*
X121Y1791D01*
X122Y1792D01*
X123Y1793D01*
X124Y1794D01*
X125Y1795D01*
X126Y1796D01*
X127Y1797D01*
X128Y1798D01*
X129Y1799D01*
X130Y1800D01*
X131Y1801D01*
X132Y1801D01*
X133Y1802D01*
X134Y1803D01*
X135Y1804D01*
X136Y1805D01*
X137Y1806D01*
X138Y1807D01*
X139Y1808D01*
X140Y1808D01*
X141Y1809D01*
X142Y1810D01*
X143Y1811D01*
X144Y1812D01*
X145Y1812D01*
X146Y1813D01*
X147Y1814D01*
X148Y1815D01*
X149Y1816D01*
X150Y1816D01*
X151Y1817D01*
X152Y1818D01*
X153Y1819D01*
X154Y1820D01*
X155Y1820D01*
X156Y1821D01*
X157Y1822D01*
X158Y1823D01*
X159Y1823D01*
X160Y1824D01*
X161Y1825D01*
X162Y1825D01*
X163Y1826D01*
X164Y1827D01*
X165Y1828D01*
X166Y1828D01*
X167Y1829D01*
X168Y1830D01*
X169Y1830D01*
X170Y1831D01*
X171Y1832D01*
X172Y1833D01*
X173Y1833D01*
X174Y1834D01*
X175Y1834D01*
X176Y1835D01*
X177Y1836D01*
X178Y1836D01*
X179Y1837D01*
X180Y1838D01*
X181Y1838D01*
X182Y1839D01*
X183Y1840D01*
X184Y1840D01*
X185Y1841D01*
X186Y1841D01*
X187Y1842D01*
X188Y1843D01*
X189Y1843D01*
X190Y1844D01*
X191Y1845D01*
X192Y1845D01*
X193Y1846D01*
X194Y1846D01*
X195Y1847D01*
X196Y1847D01*
X197Y1848D01*
X198Y1849D01*
X199Y1849D01*
X200Y1850D01*
X201Y1850D01*
X202Y1851D01*
X203Y1851D01*
X204Y1852D01*
X205Y1853D01*
X206Y1853D01*
X207Y1854D01*
X208Y1854D01*
X209Y1855D01*
X210Y1855D01*
X211Y1856D01*
X212Y1856D01*
X213Y1857D01*
X214Y1857D01*
X215Y1858D01*
X216Y1858D01*
X217Y1859D01*
X218Y1859D01*
X219Y1860D01*
X220Y1860D01*
X221Y1861D01*
X222Y1861D01*
X223Y1862D01*
X224Y1862D01*
X225Y1863D01*
X226Y1863D01*
X227Y1863D01*
X228Y1864D01*
X229Y1864D01*
X230Y1865D01*
X231Y1865D01*
X232Y1866D01*
X233Y1866D01*
X234Y1867D01*
X235Y1867D01*
X236Y1868D01*
X237Y1868D01*
X238Y1868D01*
X239Y1869D01*
X240Y1869D01*
X241Y1870D01*
X242Y1870D01*
X243Y1870D01*
X244Y1871D01*
X245Y1871D01*
X246Y1872D01*
X247Y1872D01*
X248Y1872D01*
X249Y1873D01*
X250Y1873D01*
X251Y1874D01*
X252Y1874D01*
X253Y1874D01*
X254Y1875D01*
X255Y1875D01*
X256Y1876D01*
X257Y1876D01*
X258Y1876D01*
X259Y1877D01*
X260Y1877D01*
X261Y1877D01*
X262Y1878D01*
X263Y1878D01*
X264Y1878D01*
X265Y1879D01*
X266Y1879D01*
X267Y1879D01*
X268Y1880D01*
X269Y1880D01*
X270Y1880D01*
X271Y1881D01*
X272Y1881D01*
X273Y1881D01*
X274Y1882D01*
X275Y1882D01*
X276Y1882D01*
X277Y1883D01*
X278Y1883D01*
X279Y1883D01*
X280Y1884D01*
X281Y1884D01*
X282Y1884D01*
X283Y1884D01*
X284Y1885D01*
X285Y1885D01*
X286Y1885D01*
X287Y1886D01*
X288Y1886D01*
X289Y1886D01*
X290Y1886D01*
X291Y1887D01*
X292Y1887D01*
X293Y1887D01*
X294Y1888D01*
X295Y1888D01*
X296Y1888D01*
X297Y1888D01*
X298Y1889D01*
X299Y1889D01*
X300Y1889D01*
X301Y1889D01*
X302Y1889D01*
X303Y1890D01*
X304Y1890D01*
X305Y1890D01*
X306Y1890D01*
X307Y1891D01*
X308Y1891D01*
X309Y1891D01*
X310Y1891D01*
X311Y1891D01*
X312Y1892D01*
X313Y1892D01*
X314Y1892D01*
X315Y1892D01*
X316Y1893D01*
X317Y1893D01*
X318Y1893D01*
X319Y1893D01*
X320Y1893D01*
X321Y1893D01*
X322Y1894D01*
X323Y1894D01*
X324Y1894D01*
X325Y1894D01*
X326Y1894D01*
X327Y1895D01*
X328Y1895D01*
X329Y1895D01*
X330Y1895D01*
X331Y1895D01*
X332Y1895D01*
X333Y1896D01*
X334Y1896D01*
X335Y1896D01*
X336Y1896D01*
X337Y1896D01*
X338Y1896D01*
X339Y1896D01*
X340Y1896D01*
X341Y1897D01*
X342Y1897D01*
X343Y1897D01*
X344Y1897D01*
X345Y1897D01*
X346Y1897D01*
X347Y1897D01*
X348Y1897D01*
X349Y1898D01*
X350Y1898D01*
X351Y1898D01*
X352Y1898D01*
X353Y1898D01*
X354Y1898D01*
X355Y1898D01*
X356Y1898D01*
X357Y1898D01*
X358Y1898D01*
X359Y1899D01*
X360Y1899D01*
X361Y1899D01*
X362Y1899D01*
X363Y1899D01*
X364Y1899D01*
X365Y1899D01*
X366Y1899D01*
X367Y1899D01*
X368Y1899D01*
X369Y1899D01*
X370Y1899D01*
X371Y1899D01*
X372Y1899D01*
X373Y1900D01*
D02*
G04 End of contour*
M02*